<svg xmlns="http://www.w3.org/2000/svg" xmlns:xlink="http://www.w3.org/1999/xlink" width="1080" zoomAndPan="magnify" viewBox="0 0 810 809.999993" height="1080" preserveAspectRatio="xMidYMid meet" version="1.0"><defs><clipPath id="26e60335ad"><path d="M 104.105469 81 L 735.117188 81 L 735.117188 735 L 104.105469 735 Z M 104.105469 81 " clip-rule="nonzero"/></clipPath><clipPath id="694a91fd58"><path d="M 419.609375 81 C 245.359375 81 104.105469 227.429688 104.105469 408.058594 C 104.105469 588.6875 245.359375 735.117188 419.609375 735.117188 C 593.859375 735.117188 735.117188 588.6875 735.117188 408.058594 C 735.117188 227.429688 593.859375 81 419.609375 81 Z M 419.609375 81 " clip-rule="nonzero"/></clipPath></defs><g clip-path="url(#26e60335ad)"><g clip-path="url(#694a91fd58)"><path fill="#ffffff" d="M 104.105469 81 L 735.117188 81 L 735.117188 734.195312 L 104.105469 734.195312 Z M 104.105469 81 " fill-opacity="1" fill-rule="nonzero"/></g></g><path fill="#648fff" d="M 405 0 C 398.371094 0 391.746094 0.164062 385.128906 0.488281 C 378.507812 0.8125 371.898438 1.300781 365.304688 1.949219 C 358.707031 2.601562 352.128906 3.410156 345.574219 4.382812 C 339.019531 5.355469 332.488281 6.488281 325.988281 7.78125 C 319.488281 9.074219 313.023438 10.527344 306.59375 12.136719 C 300.164062 13.746094 293.777344 15.515625 287.433594 17.4375 C 281.09375 19.363281 274.800781 21.441406 268.558594 23.675781 C 262.320312 25.90625 256.136719 28.292969 250.011719 30.828125 C 243.890625 33.367188 237.832031 36.050781 231.839844 38.882812 C 225.847656 41.71875 219.929688 44.699219 214.085938 47.820312 C 208.238281 50.945312 202.472656 54.210938 196.789062 57.621094 C 191.101562 61.027344 185.503906 64.574219 179.992188 68.253906 C 174.484375 71.9375 169.066406 75.753906 163.742188 79.699219 C 158.417969 83.648438 153.195312 87.726562 148.070312 91.929688 C 142.945312 96.136719 137.929688 100.464844 133.019531 104.914062 C 128.109375 109.367188 123.308594 113.933594 118.621094 118.621094 C 113.933594 123.308594 109.367188 128.109375 104.914062 133.019531 C 100.464844 137.929688 96.136719 142.945312 91.929688 148.070312 C 87.726562 153.195312 83.648438 158.417969 79.699219 163.742188 C 75.753906 169.066406 71.9375 174.484375 68.253906 179.992188 C 64.574219 185.503906 61.027344 191.101562 57.621094 196.789062 C 54.210938 202.472656 50.945312 208.238281 47.820312 214.085938 C 44.699219 219.929688 41.71875 225.847656 38.882812 231.839844 C 36.050781 237.832031 33.367188 243.890625 30.828125 250.011719 C 28.292969 256.136719 25.90625 262.320312 23.675781 268.558594 C 21.441406 274.800781 19.363281 281.09375 17.4375 287.433594 C 15.515625 293.777344 13.746094 300.164062 12.136719 306.59375 C 10.527344 313.023438 9.074219 319.488281 7.78125 325.988281 C 6.488281 332.488281 5.355469 339.019531 4.382812 345.574219 C 3.410156 352.128906 2.601562 358.707031 1.949219 365.304688 C 1.300781 371.898438 0.8125 378.507812 0.488281 385.128906 C 0.164062 391.746094 0 398.371094 0 405 C 0 411.628906 0.164062 418.253906 0.488281 424.871094 C 0.8125 431.492188 1.300781 438.101562 1.949219 444.695312 C 2.601562 451.292969 3.410156 457.871094 4.382812 464.425781 C 5.355469 470.980469 6.488281 477.511719 7.78125 484.011719 C 9.074219 490.511719 10.527344 496.976562 12.136719 503.40625 C 13.746094 509.835938 15.515625 516.222656 17.4375 522.566406 C 19.363281 528.90625 21.441406 535.199219 23.675781 541.441406 C 25.90625 547.679688 28.292969 553.863281 30.828125 559.988281 C 33.367188 566.109375 36.050781 572.167969 38.882812 578.160156 C 41.71875 584.152344 44.699219 590.070312 47.820312 595.914062 C 50.945312 601.761719 54.210938 607.527344 57.621094 613.210938 C 61.027344 618.898438 64.574219 624.496094 68.253906 630.007812 C 71.9375 635.515625 75.753906 640.933594 79.699219 646.257812 C 83.648438 651.582031 87.726562 656.804688 91.929688 661.929688 C 96.136719 667.054688 100.464844 672.070312 104.914062 676.980469 C 109.367188 681.890625 113.933594 686.691406 118.621094 691.378906 C 123.308594 696.066406 128.109375 700.632812 133.019531 705.085938 C 137.929688 709.535156 142.945312 713.863281 148.070312 718.070312 C 153.195312 722.273438 158.417969 726.351562 163.742188 730.300781 C 169.066406 734.246094 174.484375 738.0625 179.992188 741.746094 C 185.503906 745.425781 191.101562 748.972656 196.789062 752.378906 C 202.472656 755.789062 208.238281 759.054688 214.085938 762.179688 C 219.929688 765.300781 225.847656 768.28125 231.839844 771.117188 C 237.832031 773.949219 243.890625 776.632812 250.011719 779.171875 C 256.136719 781.707031 262.320312 784.09375 268.558594 786.324219 C 274.800781 788.558594 281.09375 790.636719 287.433594 792.5625 C 293.777344 794.484375 300.164062 796.253906 306.59375 797.863281 C 313.023438 799.472656 319.488281 800.925781 325.988281 802.21875 C 332.488281 803.511719 339.019531 804.644531 345.574219 805.617188 C 352.128906 806.589844 358.707031 807.398438 365.304688 808.050781 C 371.898438 808.699219 378.507812 809.1875 385.128906 809.511719 C 391.746094 809.835938 398.371094 810 405 810 C 411.628906 810 418.253906 809.835938 424.871094 809.511719 C 431.492188 809.1875 438.101562 808.699219 444.695312 808.050781 C 451.292969 807.398438 457.871094 806.589844 464.425781 805.617188 C 470.980469 804.644531 477.511719 803.511719 484.011719 802.21875 C 490.511719 800.925781 496.976562 799.472656 503.40625 797.863281 C 509.835938 796.253906 516.222656 794.484375 522.566406 792.5625 C 528.90625 790.636719 535.199219 788.558594 541.441406 786.324219 C 547.679688 784.09375 553.863281 781.707031 559.988281 779.171875 C 566.109375 776.632812 572.167969 773.949219 578.160156 771.117188 C 584.152344 768.28125 590.070312 765.300781 595.914062 762.179688 C 601.761719 759.054688 607.527344 755.789062 613.210938 752.378906 C 618.898438 748.972656 624.496094 745.425781 630.007812 741.746094 C 635.515625 738.0625 640.933594 734.246094 646.257812 730.300781 C 651.582031 726.351562 656.804688 722.273438 661.929688 718.070312 C 667.054688 713.863281 672.070312 709.535156 676.980469 705.085938 C 681.890625 700.632812 686.691406 696.066406 691.378906 691.378906 C 696.066406 686.691406 700.632812 681.890625 705.085938 676.980469 C 709.535156 672.070312 713.863281 667.054688 718.070312 661.929688 C 722.273438 656.804688 726.351562 651.582031 730.300781 646.257812 C 734.246094 640.933594 738.0625 635.515625 741.746094 630.007812 C 745.425781 624.496094 748.972656 618.898438 752.378906 613.210938 C 755.789062 607.527344 759.054688 601.761719 762.179688 595.914062 C 765.300781 590.070312 768.28125 584.152344 771.117188 578.160156 C 773.949219 572.167969 776.632812 566.109375 779.171875 559.988281 C 781.707031 553.863281 784.09375 547.679688 786.324219 541.441406 C 788.558594 535.199219 790.636719 528.90625 792.5625 522.566406 C 794.484375 516.222656 796.253906 509.835938 797.863281 503.40625 C 799.472656 496.976562 800.925781 490.511719 802.21875 484.011719 C 803.511719 477.511719 804.644531 470.980469 805.617188 464.425781 C 806.589844 457.871094 807.398438 451.292969 808.050781 444.695312 C 808.699219 438.101562 809.1875 431.492188 809.511719 424.871094 C 809.835938 418.253906 810 411.628906 810 405 C 810 398.371094 809.835938 391.75 809.507812 385.128906 C 809.183594 378.507812 808.695312 371.902344 808.042969 365.304688 C 807.390625 358.710938 806.582031 352.132812 805.605469 345.578125 C 804.632812 339.023438 803.5 332.492188 802.207031 325.992188 C 800.910156 319.492188 799.460938 313.027344 797.847656 306.601562 C 796.238281 300.171875 794.46875 293.785156 792.542969 287.441406 C 790.621094 281.101562 788.539062 274.808594 786.308594 268.570312 C 784.074219 262.328125 781.6875 256.148438 779.152344 250.023438 C 776.613281 243.902344 773.929688 237.84375 771.09375 231.851562 C 768.261719 225.863281 765.28125 219.945312 762.15625 214.097656 C 759.03125 208.253906 755.765625 202.488281 752.359375 196.804688 C 748.949219 191.121094 745.40625 185.523438 741.722656 180.011719 C 738.039062 174.5 734.226562 169.082031 730.277344 163.761719 C 726.328125 158.4375 722.25 153.214844 718.046875 148.089844 C 713.84375 142.96875 709.515625 137.949219 705.0625 133.039062 C 700.613281 128.128906 696.042969 123.328125 691.355469 118.644531 C 686.671875 113.957031 681.871094 109.386719 676.960938 104.9375 C 672.050781 100.484375 667.03125 96.15625 661.910156 91.953125 C 656.785156 87.75 651.5625 83.671875 646.238281 79.722656 C 640.917969 75.773438 635.5 71.960938 629.988281 68.277344 C 624.476562 64.59375 618.878906 61.050781 613.195312 57.640625 C 607.511719 54.234375 601.746094 50.96875 595.902344 47.84375 C 590.054688 44.71875 584.136719 41.738281 578.148438 38.90625 C 572.15625 36.070312 566.097656 33.386719 559.976562 30.847656 C 553.851562 28.3125 547.671875 25.925781 541.429688 23.691406 C 535.191406 21.460938 528.898438 19.378906 522.558594 17.457031 C 516.214844 15.53125 509.828125 13.761719 503.402344 12.152344 C 496.972656 10.539062 490.507812 9.089844 484.007812 7.792969 C 477.507812 6.5 470.976562 5.367188 464.421875 4.394531 C 457.867188 3.417969 451.289062 2.609375 444.695312 1.957031 C 438.097656 1.304688 431.492188 0.816406 424.871094 0.492188 C 418.25 0.164062 411.628906 0 405 0 Z M 269.324219 542.121094 L 165.472656 542.121094 C 164.578125 542.121094 163.695312 542.035156 162.816406 541.863281 C 161.941406 541.6875 161.089844 541.433594 160.265625 541.089844 C 159.441406 540.75 158.65625 540.332031 157.914062 539.835938 C 157.171875 539.339844 156.484375 538.773438 155.851562 538.144531 C 155.222656 537.511719 154.65625 536.824219 154.160156 536.082031 C 153.664062 535.339844 153.246094 534.554688 152.90625 533.730469 C 152.5625 532.90625 152.308594 532.054688 152.132812 531.179688 C 151.960938 530.300781 151.875 529.417969 151.875 528.523438 L 151.875 281.476562 C 151.875 280.582031 151.960938 279.699219 152.132812 278.820312 C 152.308594 277.945312 152.5625 277.09375 152.90625 276.269531 C 153.246094 275.445312 153.664062 274.660156 154.160156 273.917969 C 154.65625 273.175781 155.222656 272.488281 155.851562 271.855469 C 156.484375 271.226562 157.171875 270.660156 157.914062 270.164062 C 158.65625 269.667969 159.441406 269.25 160.265625 268.910156 C 161.089844 268.566406 161.941406 268.3125 162.816406 268.136719 C 163.695312 267.964844 164.578125 267.878906 165.472656 267.878906 L 269.324219 267.878906 Z M 466.761719 640.042969 C 466.757812 641.261719 466.59375 642.453125 466.269531 643.625 C 465.945312 644.796875 465.472656 645.90625 464.847656 646.949219 C 464.222656 647.992188 463.472656 648.933594 462.59375 649.777344 C 461.71875 650.617188 460.746094 651.328125 459.675781 651.90625 C 457.660156 653.070312 455.492188 653.648438 453.167969 653.640625 C 450.488281 653.5625 448.03125 652.792969 445.789062 651.328125 L 296.375 553.546875 L 296.375 256.308594 L 445.789062 158.671875 C 446.808594 157.996094 447.898438 157.46875 449.058594 157.082031 C 450.222656 156.699219 451.410156 156.476562 452.632812 156.414062 C 453.855469 156.351562 455.0625 156.449219 456.257812 156.707031 C 457.453125 156.96875 458.589844 157.382812 459.675781 157.949219 C 460.742188 158.550781 461.710938 159.28125 462.585938 160.136719 C 463.457031 160.992188 464.207031 161.949219 464.828125 163.003906 C 465.449219 164.054688 465.925781 165.171875 466.253906 166.351562 C 466.582031 167.53125 466.75 168.730469 466.761719 169.957031 Z M 621.242188 597.808594 L 621.242188 641.78125 L 585.082031 641.78125 L 585.082031 597.808594 C 583.75 597.347656 582.4375 596.835938 581.144531 596.269531 C 579.855469 595.707031 578.585938 595.09375 577.34375 594.433594 C 576.097656 593.773438 574.882812 593.0625 573.691406 592.308594 C 572.503906 591.554688 571.34375 590.753906 570.21875 589.90625 C 569.089844 589.0625 567.996094 588.175781 566.9375 587.246094 C 565.878906 586.316406 564.855469 585.347656 563.875 584.339844 C 562.890625 583.328125 561.945312 582.285156 561.042969 581.203125 C 560.140625 580.121094 559.28125 579.007812 558.464844 577.859375 C 557.644531 576.710938 556.875 575.53125 556.148438 574.324219 C 555.421875 573.117188 554.746094 571.882812 554.113281 570.621094 C 553.484375 569.363281 552.902344 568.078125 552.371094 566.773438 C 551.839844 565.46875 551.363281 564.144531 550.933594 562.804688 C 550.503906 561.460938 550.128906 560.105469 549.804688 558.734375 C 549.480469 557.363281 549.210938 555.980469 548.992188 554.589844 C 548.777344 553.195312 548.613281 551.796875 548.503906 550.390625 C 548.394531 548.988281 548.339844 547.582031 548.339844 546.171875 C 548.339844 544.761719 548.394531 543.355469 548.503906 541.949219 C 548.613281 540.546875 548.777344 539.148438 548.992188 537.753906 C 549.210938 536.363281 549.480469 534.980469 549.804688 533.609375 C 550.128906 532.238281 550.503906 530.882812 550.933594 529.539062 C 551.363281 528.195312 551.839844 526.875 552.371094 525.570312 C 552.902344 524.261719 553.484375 522.980469 554.113281 521.71875 C 554.746094 520.460938 555.421875 519.226562 556.148438 518.019531 C 556.875 516.8125 557.644531 515.632812 558.464844 514.484375 C 559.28125 513.335938 560.140625 512.222656 561.042969 511.140625 C 561.945312 510.058594 562.890625 509.011719 563.875 508.003906 C 564.855469 506.996094 565.878906 506.027344 566.9375 505.097656 C 567.996094 504.167969 569.089844 503.28125 570.21875 502.433594 C 571.34375 501.589844 572.503906 500.789062 573.691406 500.035156 C 574.882812 499.277344 576.097656 498.570312 577.34375 497.910156 C 578.585938 497.246094 579.855469 496.636719 581.144531 496.070312 C 582.4375 495.507812 583.75 494.996094 585.082031 494.535156 L 585.082031 168.074219 L 621.242188 168.074219 L 621.242188 494.535156 C 622.578125 494.992188 623.890625 495.5 625.1875 496.058594 C 626.484375 496.621094 627.753906 497.230469 629.003906 497.886719 C 630.253906 498.546875 631.472656 499.253906 632.667969 500.003906 C 633.859375 500.757812 635.023438 501.558594 636.15625 502.398438 C 637.285156 503.242188 638.382812 504.128906 639.449219 505.058594 C 640.511719 505.988281 641.535156 506.953125 642.523438 507.964844 C 643.511719 508.972656 644.460938 510.015625 645.367188 511.097656 C 646.273438 512.179688 647.136719 513.292969 647.957031 514.441406 C 648.777344 515.589844 649.550781 516.769531 650.28125 517.980469 C 651.011719 519.1875 651.691406 520.421875 652.324219 521.683594 C 652.957031 522.945312 653.542969 524.230469 654.074219 525.535156 C 654.609375 526.84375 655.089844 528.167969 655.519531 529.511719 C 655.953125 530.855469 656.328125 532.214844 656.65625 533.589844 C 656.980469 534.960938 657.253906 536.347656 657.46875 537.742188 C 657.6875 539.136719 657.851562 540.535156 657.960938 541.945312 C 658.070312 543.351562 658.125 544.761719 658.125 546.171875 C 658.125 547.582031 658.070312 548.992188 657.960938 550.398438 C 657.851562 551.808594 657.6875 553.207031 657.46875 554.601562 C 657.253906 555.996094 656.980469 557.378906 656.65625 558.753906 C 656.328125 560.128906 655.953125 561.488281 655.519531 562.832031 C 655.089844 564.175781 654.609375 565.5 654.074219 566.808594 C 653.542969 568.113281 652.957031 569.398438 652.324219 570.660156 C 651.691406 571.921875 651.011719 573.15625 650.28125 574.363281 C 649.550781 575.574219 648.777344 576.75 647.957031 577.898438 C 647.136719 579.046875 646.273438 580.164062 645.367188 581.246094 C 644.460938 582.328125 643.511719 583.371094 642.523438 584.378906 C 641.535156 585.386719 640.511719 586.355469 639.449219 587.285156 C 638.382812 588.214844 637.285156 589.097656 636.15625 589.941406 C 635.023438 590.785156 633.859375 591.585938 632.667969 592.335938 C 631.472656 593.089844 630.253906 593.796875 629.003906 594.457031 C 627.753906 595.113281 626.484375 595.722656 625.1875 596.28125 C 623.890625 596.84375 622.578125 597.351562 621.242188 597.808594 Z M 621.242188 597.808594 " fill-opacity="1" fill-rule="nonzero"/></svg>