<svg xmlns="http://www.w3.org/2000/svg" xmlns:xlink="http://www.w3.org/1999/xlink" width="1080" zoomAndPan="magnify" viewBox="0 0 810 809.999993" height="1080" preserveAspectRatio="xMidYMid meet" version="1.0"><defs><clipPath id="057aea6dea"><path d="M 377 333 L 433 333 L 433 664.5 L 377 664.5 Z M 377 333 " clip-rule="nonzero"/></clipPath><clipPath id="577667f22b"><path d="M 183 434 L 203 434 L 203 664.5 L 183 664.5 Z M 183 434 " clip-rule="nonzero"/></clipPath><clipPath id="97e60f1773"><path d="M 276 590 L 295 590 L 295 664.5 L 276 664.5 Z M 276 590 " clip-rule="nonzero"/></clipPath><clipPath id="ce6f8b3533"><path d="M 607 433 L 627 433 L 627 664.5 L 607 664.5 Z M 607 433 " clip-rule="nonzero"/></clipPath><clipPath id="6b477e5226"><path d="M 515 590 L 534 590 L 534 664.5 L 515 664.5 Z M 515 590 " clip-rule="nonzero"/></clipPath><clipPath id="1b522c9db7"><path d="M 110 646 L 700 646 L 700 664.5 L 110 664.5 Z M 110 646 " clip-rule="nonzero"/></clipPath></defs><path fill="#648fff" d="M 810 405 C 810 411.628906 809.835938 418.253906 809.511719 424.871094 C 809.1875 431.492188 808.699219 438.101562 808.050781 444.695312 C 807.398438 451.292969 806.589844 457.871094 805.617188 464.425781 C 804.644531 470.980469 803.511719 477.511719 802.21875 484.011719 C 800.925781 490.511719 799.472656 496.976562 797.863281 503.40625 C 796.25 509.835938 794.484375 516.222656 792.5625 522.566406 C 790.636719 528.90625 788.558594 535.199219 786.324219 541.441406 C 784.09375 547.679688 781.707031 553.863281 779.171875 559.988281 C 776.632812 566.109375 773.949219 572.167969 771.117188 578.160156 C 768.28125 584.152344 765.300781 590.070312 762.179688 595.914062 C 759.054688 601.761719 755.789062 607.527344 752.378906 613.210938 C 748.972656 618.898438 745.425781 624.496094 741.746094 630.003906 C 738.0625 635.515625 734.246094 640.933594 730.296875 646.257812 C 726.351562 651.582031 722.273438 656.804688 718.070312 661.929688 C 713.863281 667.054688 709.535156 672.070312 705.085938 676.980469 C 700.632812 681.890625 696.066406 686.691406 691.378906 691.378906 C 686.691406 696.066406 681.890625 700.632812 676.980469 705.085938 C 672.070312 709.535156 667.054688 713.863281 661.929688 718.070312 C 656.804688 722.273438 651.582031 726.351562 646.257812 730.300781 C 640.933594 734.246094 635.515625 738.0625 630.003906 741.746094 C 624.496094 745.425781 618.898438 748.972656 613.210938 752.378906 C 607.527344 755.789062 601.761719 759.054688 595.914062 762.179688 C 590.070312 765.300781 584.152344 768.28125 578.160156 771.117188 C 572.167969 773.949219 566.109375 776.632812 559.988281 779.171875 C 553.863281 781.707031 547.679688 784.09375 541.441406 786.324219 C 535.199219 788.558594 528.90625 790.636719 522.566406 792.5625 C 516.222656 794.484375 509.835938 796.25 503.40625 797.863281 C 496.976562 799.472656 490.511719 800.925781 484.011719 802.21875 C 477.511719 803.511719 470.980469 804.644531 464.425781 805.617188 C 457.871094 806.589844 451.292969 807.398438 444.695312 808.050781 C 438.101562 808.699219 431.492188 809.1875 424.871094 809.511719 C 418.253906 809.835938 411.628906 810 405 810 C 398.371094 810 391.746094 809.835938 385.128906 809.511719 C 378.507812 809.1875 371.898438 808.699219 365.304688 808.050781 C 358.707031 807.398438 352.128906 806.589844 345.574219 805.617188 C 339.019531 804.644531 332.488281 803.511719 325.988281 802.21875 C 319.488281 800.925781 313.023438 799.472656 306.59375 797.863281 C 300.164062 796.25 293.777344 794.484375 287.433594 792.5625 C 281.09375 790.636719 274.800781 788.558594 268.558594 786.324219 C 262.320312 784.09375 256.136719 781.707031 250.011719 779.171875 C 243.890625 776.632812 237.832031 773.949219 231.839844 771.117188 C 225.847656 768.28125 219.929688 765.300781 214.085938 762.179688 C 208.238281 759.054688 202.472656 755.789062 196.789062 752.378906 C 191.101562 748.972656 185.503906 745.425781 179.992188 741.746094 C 174.484375 738.0625 169.066406 734.246094 163.742188 730.300781 C 158.417969 726.351562 153.195312 722.273438 148.070312 718.070312 C 142.945312 713.863281 137.929688 709.535156 133.019531 705.085938 C 128.109375 700.632812 123.308594 696.066406 118.621094 691.378906 C 113.933594 686.691406 109.367188 681.890625 104.914062 676.980469 C 100.464844 672.070312 96.136719 667.054688 91.929688 661.929688 C 87.726562 656.804688 83.648438 651.582031 79.699219 646.257812 C 75.753906 640.933594 71.9375 635.515625 68.253906 630.003906 C 64.574219 624.496094 61.027344 618.898438 57.621094 613.210938 C 54.210938 607.527344 50.945312 601.761719 47.820312 595.914062 C 44.699219 590.070312 41.71875 584.152344 38.882812 578.160156 C 36.050781 572.167969 33.363281 566.109375 30.828125 559.988281 C 28.292969 553.863281 25.90625 547.679688 23.675781 541.441406 C 21.441406 535.199219 19.363281 528.90625 17.4375 522.566406 C 15.515625 516.222656 13.746094 509.835938 12.136719 503.40625 C 10.527344 496.976562 9.074219 490.511719 7.78125 484.011719 C 6.488281 477.511719 5.355469 470.980469 4.382812 464.425781 C 3.410156 457.871094 2.601562 451.292969 1.949219 444.695312 C 1.300781 438.101562 0.8125 431.492188 0.488281 424.871094 C 0.164062 418.253906 0 411.628906 0 405 C 0 398.371094 0.164062 391.746094 0.488281 385.128906 C 0.8125 378.507812 1.300781 371.898438 1.949219 365.304688 C 2.601562 358.707031 3.410156 352.128906 4.382812 345.574219 C 5.355469 339.019531 6.488281 332.488281 7.78125 325.988281 C 9.074219 319.488281 10.527344 313.023438 12.136719 306.59375 C 13.746094 300.164062 15.515625 293.777344 17.4375 287.433594 C 19.363281 281.09375 21.441406 274.800781 23.675781 268.558594 C 25.90625 262.320312 28.292969 256.136719 30.828125 250.011719 C 33.363281 243.890625 36.050781 237.832031 38.882812 231.839844 C 41.71875 225.847656 44.699219 219.929688 47.820312 214.085938 C 50.945312 208.238281 54.210938 202.472656 57.621094 196.789062 C 61.027344 191.101562 64.574219 185.503906 68.253906 179.992188 C 71.9375 174.484375 75.753906 169.066406 79.699219 163.742188 C 83.648438 158.417969 87.726562 153.195312 91.929688 148.070312 C 96.136719 142.945312 100.464844 137.929688 104.914062 133.019531 C 109.367188 128.109375 113.933594 123.308594 118.621094 118.621094 C 123.308594 113.933594 128.109375 109.367188 133.019531 104.914062 C 137.929688 100.464844 142.945312 96.136719 148.070312 91.929688 C 153.195312 87.726562 158.417969 83.648438 163.742188 79.699219 C 169.066406 75.753906 174.484375 71.9375 179.992188 68.253906 C 185.503906 64.574219 191.101562 61.027344 196.789062 57.621094 C 202.472656 54.210938 208.238281 50.945312 214.085938 47.820312 C 219.929688 44.699219 225.847656 41.71875 231.839844 38.882812 C 237.832031 36.050781 243.890625 33.367188 250.011719 30.828125 C 256.136719 28.292969 262.320312 25.90625 268.558594 23.675781 C 274.800781 21.441406 281.09375 19.363281 287.433594 17.4375 C 293.777344 15.515625 300.164062 13.746094 306.59375 12.136719 C 313.023438 10.527344 319.488281 9.074219 325.988281 7.78125 C 332.488281 6.488281 339.019531 5.355469 345.574219 4.382812 C 352.128906 3.410156 358.707031 2.601562 365.304688 1.949219 C 371.898438 1.300781 378.507812 0.8125 385.128906 0.488281 C 391.746094 0.164062 398.371094 0 405 0 C 411.628906 0 418.253906 0.164062 424.871094 0.488281 C 431.492188 0.8125 438.101562 1.300781 444.695312 1.949219 C 451.292969 2.601562 457.871094 3.410156 464.425781 4.382812 C 470.980469 5.355469 477.511719 6.488281 484.011719 7.78125 C 490.511719 9.074219 496.976562 10.527344 503.40625 12.136719 C 509.835938 13.746094 516.222656 15.515625 522.566406 17.4375 C 528.90625 19.363281 535.199219 21.441406 541.441406 23.675781 C 547.679688 25.90625 553.863281 28.292969 559.988281 30.828125 C 566.109375 33.367188 572.167969 36.050781 578.160156 38.882812 C 584.152344 41.71875 590.070312 44.699219 595.914062 47.820312 C 601.761719 50.945312 607.527344 54.210938 613.210938 57.621094 C 618.898438 61.027344 624.496094 64.574219 630.003906 68.253906 C 635.515625 71.9375 640.933594 75.753906 646.257812 79.699219 C 651.582031 83.648438 656.804688 87.726562 661.929688 91.929688 C 667.054688 96.136719 672.070312 100.464844 676.980469 104.914062 C 681.890625 109.367188 686.691406 113.933594 691.378906 118.621094 C 696.066406 123.308594 700.632812 128.109375 705.085938 133.019531 C 709.535156 137.929688 713.863281 142.945312 718.070312 148.070312 C 722.273438 153.195312 726.351562 158.417969 730.300781 163.742188 C 734.246094 169.066406 738.0625 174.484375 741.746094 179.992188 C 745.425781 185.503906 748.972656 191.101562 752.378906 196.789062 C 755.789062 202.472656 759.054688 208.238281 762.179688 214.085938 C 765.300781 219.929688 768.28125 225.847656 771.117188 231.839844 C 773.949219 237.832031 776.632812 243.890625 779.171875 250.011719 C 781.707031 256.136719 784.09375 262.320312 786.324219 268.558594 C 788.558594 274.800781 790.636719 281.09375 792.5625 287.433594 C 794.484375 293.777344 796.253906 300.164062 797.863281 306.59375 C 799.472656 313.023438 800.925781 319.488281 802.21875 325.988281 C 803.511719 332.488281 804.644531 339.019531 805.617188 345.574219 C 806.589844 352.128906 807.398438 358.707031 808.050781 365.304688 C 808.699219 371.898438 809.1875 378.507812 809.511719 385.128906 C 809.835938 391.746094 810 398.371094 810 405 Z M 810 405 " fill-opacity="1" fill-rule="nonzero"/><g clip-path="url(#057aea6dea)"><path fill="#ffffff" d="M 423.503906 664.324219 L 386.628906 664.324219 C 381.578125 664.324219 377.480469 660.226562 377.480469 655.171875 L 377.480469 333.941406 L 432.65625 333.941406 L 432.65625 655.171875 C 432.65625 660.226562 428.558594 664.324219 423.503906 664.324219 Z M 423.503906 664.324219 " fill-opacity="1" fill-rule="evenodd"/></g><path fill="#ffffff" d="M 690.789062 314.136719 L 521.839844 314.136719 L 428.148438 89.878906 L 696.386719 297.613281 C 699.53125 300.070312 700.757812 304.167969 699.53125 307.855469 C 698.300781 311.542969 694.75 314.136719 690.789062 314.136719 Z M 501.355469 314.136719 L 308.917969 314.136719 L 405.066406 81 Z M 288.566406 314.136719 L 119.210938 314.136719 C 115.25 314.136719 111.699219 311.542969 110.46875 307.855469 C 109.238281 304.167969 110.46875 300.070312 113.609375 297.613281 L 382.257812 89.605469 Z M 288.566406 314.136719 " fill-opacity="1" fill-rule="evenodd"/><path fill="#ffffff" d="M 524.847656 535.257812 L 285.152344 535.257812 C 280.097656 535.257812 276 531.160156 276 526.105469 L 276 489.230469 C 276 484.179688 280.097656 480.082031 285.152344 480.082031 L 524.847656 480.082031 C 529.898438 480.082031 533.996094 484.179688 533.996094 489.230469 L 533.996094 526.105469 C 534.132812 531.160156 529.898438 535.257812 524.847656 535.257812 Z M 524.847656 535.257812 " fill-opacity="1" fill-rule="evenodd"/><g clip-path="url(#577667f22b)"><path fill="#ffffff" d="M 192.960938 664.324219 C 187.910156 664.324219 183.8125 660.226562 183.8125 655.171875 L 183.8125 443.203125 C 183.8125 438.152344 187.910156 434.054688 192.960938 434.054688 C 198.015625 434.054688 202.113281 438.152344 202.113281 443.203125 L 202.113281 655.171875 C 202.25 660.226562 198.015625 664.324219 192.960938 664.324219 Z M 192.960938 664.324219 " fill-opacity="1" fill-rule="evenodd"/></g><path fill="#ffffff" d="M 285.152344 609.011719 L 192.960938 609.011719 C 187.910156 609.011719 183.8125 604.914062 183.8125 599.859375 L 183.8125 562.984375 C 183.8125 557.929688 187.910156 553.832031 192.960938 553.832031 L 285.152344 553.832031 C 290.207031 553.832031 294.304688 557.929688 294.304688 562.984375 L 294.304688 599.859375 C 294.441406 604.914062 290.207031 609.011719 285.152344 609.011719 Z M 285.152344 609.011719 " fill-opacity="1" fill-rule="evenodd"/><g clip-path="url(#97e60f1773)"><path fill="#ffffff" d="M 285.152344 664.324219 C 280.097656 664.324219 276 660.226562 276 655.171875 L 276 599.859375 C 276 594.804688 280.097656 590.707031 285.152344 590.707031 C 290.207031 590.707031 294.304688 594.804688 294.304688 599.859375 L 294.304688 655.171875 C 294.441406 660.226562 290.207031 664.324219 285.152344 664.324219 Z M 285.152344 664.324219 " fill-opacity="1" fill-rule="evenodd"/></g><g clip-path="url(#ce6f8b3533)"><path fill="#ffffff" d="M 617.035156 664.324219 C 611.984375 664.324219 607.886719 660.226562 607.886719 655.171875 L 607.886719 443.066406 C 607.886719 438.015625 611.984375 433.917969 617.035156 433.917969 C 622.089844 433.917969 626.1875 438.015625 626.1875 443.066406 L 626.1875 655.035156 C 626.1875 660.226562 622.089844 664.324219 617.035156 664.324219 Z M 617.035156 664.324219 " fill-opacity="1" fill-rule="evenodd"/></g><path fill="#ffffff" d="M 617.035156 609.011719 L 524.847656 609.011719 C 519.792969 609.011719 515.695312 604.914062 515.695312 599.859375 L 515.695312 562.984375 C 515.695312 557.929688 519.792969 553.832031 524.847656 553.832031 L 617.035156 553.832031 C 622.089844 553.832031 626.1875 557.929688 626.1875 562.984375 L 626.1875 599.859375 C 626.1875 604.914062 622.089844 609.011719 617.035156 609.011719 Z M 617.035156 609.011719 " fill-opacity="1" fill-rule="evenodd"/><g clip-path="url(#6b477e5226)"><path fill="#ffffff" d="M 524.847656 664.324219 C 519.792969 664.324219 515.695312 660.226562 515.695312 655.171875 L 515.695312 599.859375 C 515.695312 594.804688 519.792969 590.707031 524.847656 590.707031 C 529.898438 590.707031 533.996094 594.804688 533.996094 599.859375 L 533.996094 655.171875 C 534.132812 660.226562 529.898438 664.324219 524.847656 664.324219 Z M 524.847656 664.324219 " fill-opacity="1" fill-rule="evenodd"/></g><path fill="#ffffff" d="M 340.464844 498.382812 L 312.878906 498.382812 C 308.507812 498.382812 304.683594 495.242188 303.863281 491.007812 L 294.710938 444.980469 C 294.167969 442.25 294.847656 439.515625 296.625 437.332031 C 298.535156 435.28125 300.996094 434.054688 303.726562 434.054688 L 349.753906 434.054688 C 352.484375 434.054688 355.214844 435.28125 356.855469 437.332031 C 358.632812 439.378906 359.3125 442.25 358.769531 444.980469 L 349.617188 491.007812 C 348.660156 495.378906 344.835938 498.382812 340.464844 498.382812 Z M 340.464844 498.382812 " fill-opacity="1" fill-rule="evenodd"/><path fill="#ffffff" d="M 322.027344 452.355469 C 316.976562 452.355469 312.878906 448.257812 312.878906 443.203125 L 312.878906 421.214844 L 299.492188 414.523438 C 294.847656 412.203125 293.074219 406.738281 295.394531 402.230469 C 297.71875 397.585938 303.179688 395.8125 307.6875 398.132812 L 326.125 407.285156 C 329.265625 408.921875 331.179688 412.066406 331.179688 415.617188 L 331.179688 443.203125 C 331.316406 448.257812 327.082031 452.355469 322.027344 452.355469 Z M 322.027344 452.355469 " fill-opacity="1" fill-rule="evenodd"/><path fill="#ffffff" d="M 497.257812 498.382812 L 469.53125 498.382812 C 465.160156 498.382812 461.335938 495.242188 460.519531 491.007812 L 451.367188 444.980469 C 450.820312 442.25 451.503906 439.515625 453.28125 437.332031 C 455.191406 435.28125 457.648438 434.054688 460.382812 434.054688 L 506.410156 434.054688 C 509.140625 434.054688 511.871094 435.28125 513.511719 437.332031 C 515.285156 439.378906 515.96875 442.25 515.421875 444.980469 L 506.410156 491.007812 C 505.316406 495.378906 501.628906 498.382812 497.257812 498.382812 Z M 497.257812 498.382812 " fill-opacity="1" fill-rule="evenodd"/><path fill="#ffffff" d="M 487.96875 452.355469 C 482.917969 452.355469 478.820312 448.257812 478.820312 443.203125 L 478.820312 415.617188 C 478.820312 412.203125 480.730469 408.921875 483.875 407.285156 L 502.3125 398.132812 C 506.953125 395.8125 512.417969 397.722656 514.601562 402.230469 C 516.925781 406.875 515.011719 412.339844 510.503906 414.523438 L 497.121094 421.214844 L 497.121094 443.203125 C 497.257812 448.257812 493.023438 452.355469 487.96875 452.355469 Z M 487.96875 452.355469 " fill-opacity="1" fill-rule="evenodd"/><g clip-path="url(#1b522c9db7)"><path fill="#ffffff" d="M 690.789062 664.324219 L 119.210938 664.324219 C 114.15625 664.324219 110.058594 660.226562 110.058594 655.171875 C 110.058594 650.121094 114.15625 646.023438 119.210938 646.023438 L 690.789062 646.023438 C 695.84375 646.023438 699.9375 650.121094 699.9375 655.171875 C 699.9375 660.226562 695.84375 664.324219 690.789062 664.324219 Z M 690.789062 664.324219 " fill-opacity="1" fill-rule="evenodd"/></g></svg>