<svg xmlns="http://www.w3.org/2000/svg" xmlns:xlink="http://www.w3.org/1999/xlink" width="1080" zoomAndPan="magnify" viewBox="0 0 810 809.999993" height="1080" preserveAspectRatio="xMidYMid meet" version="1.0"><defs><g/><clipPath id="3be8c80258"><path d="M 0 0.503906 L 810 0.503906 L 810 810 L 0 810 Z M 0 0.503906 " clip-rule="nonzero"/></clipPath></defs><g clip-path="url(#3be8c80258)"><path fill="#142d6b" d="M 810 405.503906 C 810 412.132812 809.835938 418.757812 809.511719 425.375 C 809.1875 431.996094 808.699219 438.605469 808.050781 445.199219 C 807.398438 451.796875 806.589844 458.375 805.617188 464.929688 C 804.644531 471.484375 803.511719 478.015625 802.21875 484.515625 C 800.925781 491.015625 799.472656 497.480469 797.863281 503.910156 C 796.25 510.339844 794.484375 516.726562 792.5625 523.070312 C 790.636719 529.410156 788.558594 535.703125 786.324219 541.945312 C 784.09375 548.183594 781.707031 554.367188 779.171875 560.492188 C 776.632812 566.613281 773.949219 572.671875 771.117188 578.664062 C 768.28125 584.65625 765.300781 590.574219 762.179688 596.417969 C 759.054688 602.265625 755.789062 608.03125 752.378906 613.714844 C 748.972656 619.402344 745.425781 625 741.746094 630.507812 C 738.0625 636.019531 734.246094 641.4375 730.296875 646.761719 C 726.351562 652.085938 722.273438 657.308594 718.070312 662.433594 C 713.863281 667.558594 709.535156 672.574219 705.085938 677.484375 C 700.632812 682.394531 696.066406 687.195312 691.378906 691.882812 C 686.691406 696.570312 681.890625 701.136719 676.980469 705.589844 C 672.070312 710.039062 667.054688 714.367188 661.929688 718.574219 C 656.804688 722.777344 651.582031 726.855469 646.257812 730.800781 C 640.933594 734.75 635.515625 738.566406 630.003906 742.25 C 624.496094 745.929688 618.898438 749.476562 613.210938 752.882812 C 607.527344 756.292969 601.761719 759.558594 595.914062 762.683594 C 590.070312 765.804688 584.152344 768.785156 578.160156 771.621094 C 572.167969 774.453125 566.109375 777.136719 559.988281 779.675781 C 553.863281 782.210938 547.679688 784.597656 541.441406 786.828125 C 535.199219 789.0625 528.90625 791.140625 522.566406 793.066406 C 516.222656 794.988281 509.835938 796.753906 503.40625 798.367188 C 496.976562 799.976562 490.511719 801.429688 484.011719 802.722656 C 477.511719 804.015625 470.980469 805.148438 464.425781 806.121094 C 457.871094 807.09375 451.292969 807.902344 444.695312 808.554688 C 438.101562 809.203125 431.492188 809.691406 424.871094 810.015625 C 418.253906 810.339844 411.628906 810.503906 405 810.503906 C 398.371094 810.503906 391.746094 810.339844 385.128906 810.015625 C 378.507812 809.691406 371.898438 809.203125 365.304688 808.554688 C 358.707031 807.902344 352.128906 807.09375 345.574219 806.121094 C 339.019531 805.148438 332.488281 804.015625 325.988281 802.722656 C 319.488281 801.429688 313.023438 799.976562 306.59375 798.367188 C 300.164062 796.753906 293.777344 794.988281 287.433594 793.066406 C 281.09375 791.140625 274.800781 789.0625 268.558594 786.828125 C 262.320312 784.597656 256.136719 782.210938 250.011719 779.675781 C 243.890625 777.136719 237.832031 774.453125 231.839844 771.621094 C 225.847656 768.785156 219.929688 765.804688 214.085938 762.683594 C 208.238281 759.558594 202.472656 756.292969 196.789062 752.882812 C 191.101562 749.476562 185.503906 745.929688 179.992188 742.25 C 174.484375 738.566406 169.066406 734.75 163.742188 730.800781 C 158.417969 726.855469 153.195312 722.777344 148.070312 718.574219 C 142.945312 714.367188 137.929688 710.039062 133.019531 705.589844 C 128.109375 701.136719 123.308594 696.570312 118.621094 691.882812 C 113.933594 687.195312 109.367188 682.394531 104.914062 677.484375 C 100.464844 672.574219 96.136719 667.554688 91.929688 662.433594 C 87.726562 657.308594 83.648438 652.085938 79.699219 646.761719 C 75.753906 641.4375 71.9375 636.019531 68.253906 630.507812 C 64.574219 625 61.027344 619.402344 57.621094 613.714844 C 54.210938 608.03125 50.945312 602.265625 47.820312 596.417969 C 44.699219 590.574219 41.71875 584.65625 38.882812 578.664062 C 36.050781 572.671875 33.363281 566.613281 30.828125 560.492188 C 28.292969 554.367188 25.90625 548.183594 23.675781 541.945312 C 21.441406 535.703125 19.363281 529.410156 17.4375 523.070312 C 15.515625 516.726562 13.746094 510.339844 12.136719 503.910156 C 10.527344 497.480469 9.074219 491.015625 7.78125 484.515625 C 6.488281 478.015625 5.355469 471.484375 4.382812 464.929688 C 3.410156 458.375 2.601562 451.796875 1.949219 445.199219 C 1.300781 438.605469 0.8125 431.996094 0.488281 425.375 C 0.164062 418.757812 0 412.132812 0 405.503906 C 0 398.875 0.164062 392.25 0.488281 385.632812 C 0.8125 379.011719 1.300781 372.402344 1.949219 365.808594 C 2.601562 359.210938 3.410156 352.632812 4.382812 346.078125 C 5.355469 339.523438 6.488281 332.992188 7.78125 326.492188 C 9.074219 319.992188 10.527344 313.527344 12.136719 307.097656 C 13.746094 300.667969 15.515625 294.28125 17.4375 287.9375 C 19.363281 281.597656 21.441406 275.304688 23.675781 269.0625 C 25.90625 262.824219 28.292969 256.640625 30.828125 250.515625 C 33.363281 244.394531 36.050781 238.335938 38.882812 232.34375 C 41.71875 226.351562 44.699219 220.433594 47.820312 214.589844 C 50.945312 208.742188 54.210938 202.976562 57.621094 197.292969 C 61.027344 191.605469 64.574219 186.007812 68.253906 180.496094 C 71.9375 174.988281 75.753906 169.570312 79.699219 164.246094 C 83.648438 158.921875 87.726562 153.699219 91.929688 148.574219 C 96.136719 143.449219 100.464844 138.433594 104.914062 133.523438 C 109.367188 128.613281 113.933594 123.8125 118.621094 119.125 C 123.308594 114.4375 128.109375 109.871094 133.019531 105.417969 C 137.929688 100.96875 142.945312 96.640625 148.070312 92.433594 C 153.195312 88.230469 158.417969 84.152344 163.742188 80.203125 C 169.066406 76.257812 174.484375 72.441406 179.992188 68.757812 C 185.503906 65.078125 191.101562 61.53125 196.789062 58.125 C 202.472656 54.714844 208.238281 51.449219 214.085938 48.324219 C 219.929688 45.203125 225.847656 42.222656 231.839844 39.386719 C 237.832031 36.554688 243.890625 33.867188 250.011719 31.332031 C 256.136719 28.796875 262.320312 26.410156 268.558594 24.179688 C 274.800781 21.945312 281.09375 19.867188 287.433594 17.941406 C 293.777344 16.019531 300.164062 14.25 306.59375 12.640625 C 313.023438 11.03125 319.488281 9.578125 325.988281 8.285156 C 332.488281 6.992188 339.019531 5.859375 345.574219 4.886719 C 352.128906 3.914062 358.707031 3.105469 365.304688 2.453125 C 371.898438 1.804688 378.507812 1.316406 385.128906 0.992188 C 391.746094 0.667969 398.371094 0.503906 405 0.503906 C 411.628906 0.503906 418.253906 0.667969 424.871094 0.992188 C 431.492188 1.316406 438.101562 1.804688 444.695312 2.453125 C 451.292969 3.105469 457.871094 3.914062 464.425781 4.886719 C 470.980469 5.859375 477.511719 6.992188 484.011719 8.285156 C 490.511719 9.578125 496.976562 11.03125 503.40625 12.640625 C 509.835938 14.25 516.222656 16.019531 522.566406 17.941406 C 528.90625 19.867188 535.199219 21.945312 541.441406 24.179688 C 547.679688 26.410156 553.863281 28.796875 559.988281 31.332031 C 566.109375 33.867188 572.167969 36.554688 578.160156 39.386719 C 584.152344 42.222656 590.070312 45.203125 595.914062 48.324219 C 601.761719 51.449219 607.527344 54.714844 613.210938 58.125 C 618.898438 61.53125 624.496094 65.078125 630.003906 68.757812 C 635.515625 72.441406 640.933594 76.257812 646.257812 80.203125 C 651.582031 84.152344 656.804688 88.230469 661.929688 92.433594 C 667.054688 96.640625 672.070312 100.96875 676.980469 105.417969 C 681.890625 109.871094 686.691406 114.4375 691.378906 119.125 C 696.066406 123.8125 700.632812 128.613281 705.085938 133.523438 C 709.535156 138.433594 713.863281 143.449219 718.070312 148.574219 C 722.273438 153.699219 726.351562 158.921875 730.300781 164.246094 C 734.246094 169.570312 738.0625 174.988281 741.746094 180.496094 C 745.425781 186.007812 748.972656 191.605469 752.378906 197.292969 C 755.789062 202.976562 759.054688 208.742188 762.179688 214.589844 C 765.300781 220.433594 768.28125 226.351562 771.117188 232.34375 C 773.949219 238.335938 776.632812 244.394531 779.171875 250.515625 C 781.707031 256.640625 784.09375 262.824219 786.324219 269.0625 C 788.558594 275.304688 790.636719 281.597656 792.5625 287.9375 C 794.484375 294.28125 796.253906 300.667969 797.863281 307.097656 C 799.472656 313.527344 800.925781 319.992188 802.21875 326.492188 C 803.511719 332.992188 804.644531 339.523438 805.617188 346.078125 C 806.589844 352.632812 807.398438 359.210938 808.050781 365.808594 C 808.699219 372.402344 809.1875 379.011719 809.511719 385.632812 C 809.835938 392.25 810 398.875 810 405.503906 Z M 810 405.503906 " fill-opacity="1" fill-rule="nonzero"/></g><g fill="#ffffff" fill-opacity="1"><g transform="translate(180.940425, 714.878816)"><g><path d="M 58.625 -567.046875 C 62.539062 -567.046875 71.476562 -567.1875 85.4375 -567.46875 C 99.394531 -567.75 115.03125 -567.890625 132.34375 -567.890625 C 149.65625 -567.890625 166.960938 -568.023438 184.265625 -568.296875 C 201.578125 -568.578125 215.816406 -568.71875 226.984375 -568.71875 C 295.109375 -568.71875 345.363281 -553.5 377.75 -523.0625 C 410.132812 -492.632812 426.328125 -450.898438 426.328125 -397.859375 C 426.328125 -372.171875 421.859375 -348.578125 412.921875 -327.078125 C 403.992188 -305.578125 390.734375 -287.007812 373.140625 -271.375 C 355.554688 -255.738281 333.78125 -243.59375 307.8125 -234.9375 C 281.851562 -226.289062 251.5625 -221.96875 216.9375 -221.96875 L 158.3125 -221.96875 L 158.3125 0 L 58.625 0 Z M 158.3125 -296.515625 L 222.796875 -296.515625 C 257.972656 -296.515625 283.097656 -305.726562 298.171875 -324.15625 C 313.253906 -342.582031 320.796875 -366.03125 320.796875 -394.5 C 320.796875 -407.34375 319.117188 -419.90625 315.765625 -432.1875 C 312.421875 -444.476562 306.695312 -455.507812 298.59375 -465.28125 C 290.5 -475.050781 279.613281 -482.867188 265.9375 -488.734375 C 252.257812 -494.597656 235.085938 -497.53125 214.421875 -497.53125 C 202.140625 -497.53125 191.390625 -497.53125 182.171875 -497.53125 C 172.960938 -497.53125 165.007812 -497.25 158.3125 -496.6875 Z M 158.3125 -296.515625 "/></g></g></g></svg>