<svg xmlns="http://www.w3.org/2000/svg" xmlns:xlink="http://www.w3.org/1999/xlink" width="1080" zoomAndPan="magnify" viewBox="0 0 810 809.999993" height="1080" preserveAspectRatio="xMidYMid meet" version="1.0"><defs><clipPath id="98a1e54054"><path d="M 405 0 C 181.324219 0 0 181.324219 0 405 C 0 628.675781 181.324219 810 405 810 C 628.675781 810 810 628.675781 810 405 C 810 181.324219 628.675781 0 405 0 Z M 405 0 " clip-rule="nonzero"/></clipPath><clipPath id="6437f9f260"><path d="M 14.808594 32 L 795.558594 32 L 795.558594 809.988281 L 14.808594 809.988281 Z M 14.808594 32 " clip-rule="nonzero"/></clipPath></defs><g clip-path="url(#98a1e54054)"><rect x="-81" width="972" fill="#ffffff" y="-80.999999" height="971.999992" fill-opacity="1"/></g><g clip-path="url(#6437f9f260)"><path fill="#365ab7" d="M 476.175781 502.535156 C 512.0625 491.125 528.082031 505.230469 537.003906 520.136719 C 569.761719 511.738281 582.878906 526.914062 589.53125 534.121094 C 590.851562 534.996094 594.289062 539.714844 601.273438 538.53125 C 627.03125 534.21875 644.183594 551.589844 644.683594 568.289062 L 649.203125 718.691406 C 649.535156 729.738281 647.886719 739.210938 644.316406 749.65625 L 630.761719 789.203125 C 626.421875 801.867188 615.035156 810 601.648438 810 L 435.570312 810 C 424.425781 810 414.871094 804.574219 409.152344 795.003906 L 360.085938 712.84375 C 353.84375 702.382812 349.433594 692.921875 345.457031 681.425781 L 306.425781 568.667969 C 284.773438 515.761719 345.617188 494.050781 366.804688 539.542969 L 408.273438 626.058594 L 393.28125 355.691406 C 389.808594 312.535156 441.980469 308.097656 446.84375 349.925781 L 463.800781 495.695312 C 464.714844 503.632812 472.214844 503.789062 476.175781 502.535156 Z M 670.050781 236.542969 C 739.109375 236.542969 795.085938 292.519531 795.085938 361.578125 C 795.085938 430.625 739.109375 486.601562 670.050781 486.601562 C 600.992188 486.601562 545.015625 430.625 545.015625 361.578125 C 545.015625 292.519531 600.992188 236.542969 670.050781 236.542969 Z M 139.941406 236.542969 C 208.988281 236.542969 264.976562 292.519531 264.976562 361.578125 C 264.976562 430.625 208.988281 486.601562 139.941406 486.601562 C 70.882812 486.601562 14.90625 430.625 14.90625 361.578125 C 14.90625 292.519531 70.882812 236.542969 139.941406 236.542969 Z M 437.359375 36.609375 C 504.054688 54.480469 543.636719 123.050781 525.765625 189.742188 C 507.894531 256.449219 439.335938 296.03125 372.628906 278.160156 C 305.9375 260.289062 266.355469 191.730469 284.226562 125.023438 C 302.097656 58.320312 370.65625 18.738281 437.359375 36.609375 Z M 360.5625 137.421875 L 387.039062 168.117188 L 452.195312 101.617188 C 455.023438 98.742188 459.78125 98.925781 462.570312 101.839844 L 477.710938 117.625 C 480.515625 120.539062 480.332031 125.144531 477.492188 128 L 398.972656 206.734375 C 389.671875 215.660156 379.894531 214.890625 372.226562 206.015625 L 332.902344 161.328125 C 330.246094 158.304688 330.609375 153.625 333.660156 150.976562 L 350.199219 136.667969 C 351.738281 135.335938 353.527344 134.742188 355.539062 134.898438 C 357.5625 135.046875 359.246094 135.886719 360.5625 137.421875 Z M 360.5625 137.421875 " fill-opacity="1" fill-rule="evenodd"/></g></svg>