<svg xmlns="http://www.w3.org/2000/svg" xmlns:xlink="http://www.w3.org/1999/xlink" width="1080" zoomAndPan="magnify" viewBox="0 0 810 809.999993" height="1080" preserveAspectRatio="xMidYMid meet" version="1.0"><defs><clipPath id="729c571c09"><path d="M 20.621094 20.621094 L 789.378906 20.621094 L 789.378906 789.378906 L 20.621094 789.378906 Z M 20.621094 20.621094 " clip-rule="nonzero"/></clipPath><clipPath id="100a9980a7"><path d="M 405 20.621094 C 192.714844 20.621094 20.621094 192.714844 20.621094 405 C 20.621094 617.285156 192.714844 789.378906 405 789.378906 C 617.285156 789.378906 789.378906 617.285156 789.378906 405 C 789.378906 192.714844 617.285156 20.621094 405 20.621094 Z M 405 20.621094 " clip-rule="nonzero"/></clipPath></defs><g clip-path="url(#729c571c09)"><g clip-path="url(#100a9980a7)"><path fill="#ffffff" d="M 20.621094 20.621094 L 789.378906 20.621094 L 789.378906 789.378906 L 20.621094 789.378906 Z M 20.621094 20.621094 " fill-opacity="1" fill-rule="nonzero"/></g></g><path fill="#a6a6a6" d="M 405.011719 788.015625 C 193.816406 788.015625 21.988281 616.167969 21.988281 405.027344 C 21.988281 265.515625 97.011719 143.167969 208.828125 76.207031 C 213.078125 79.328125 218.410156 81.453125 225.210938 81.453125 C 225.210938 81.453125 232.558594 81.453125 185.621094 118.113281 C 138.664062 154.824219 143.039062 205.707031 157.707031 173.679688 C 172.402344 141.605469 185.621094 153.351562 162.128906 198.859375 C 138.664062 244.371094 174.484375 229.671875 186.617188 257.542969 C 198.816406 285.410156 203.214844 251.6875 209.066406 304.523438 C 209.066406 304.523438 223.800781 322.117188 250.175781 313.320312 C 276.585938 304.523438 245.773438 336.757812 217.890625 363.207031 C 190 389.640625 198.792969 398.394531 213.488281 414.558594 C 228.15625 430.726562 234.050781 443.898438 220.832031 461.535156 C 207.640625 479.132812 241.375 484.984375 250.175781 495.257812 C 258.976562 505.527344 257.496094 539.296875 236.972656 553.984375 C 216.457031 568.628906 247.246094 600.921875 242.808594 646.429688 C 238.40625 691.886719 239.488281 710.960938 260.230469 713.902344 C 280.988281 716.84375 257.496094 674.289062 266.300781 655.222656 C 275.113281 636.15625 285.410156 668.441406 305.933594 617.078125 C 305.933594 617.078125 342.652344 625.882812 358.726562 570.105469 C 358.726562 570.105469 391.015625 565.683594 396.90625 548.089844 C 402.800781 530.492188 395.4375 518.746094 442.375 480.605469 C 489.308594 442.425781 410.089844 413.085938 367.570312 411.613281 C 367.570312 411.613281 351.96875 417.980469 379.3125 369.054688 C 391.230469 347.691406 355.820312 352.929688 347.027344 333.863281 C 338.226562 314.789062 317.6875 292.777344 276.585938 297.15625 C 235.5 301.574219 223.714844 316.269531 222.304688 291.296875 C 220.832031 266.335938 239.878906 254.636719 219.339844 251.6875 C 198.816406 248.738281 209.066406 247.265625 231.128906 226.722656 C 231.128906 226.722656 217.890625 217.882812 204.6875 231.144531 C 191.46875 244.371094 167.980469 223.820312 195.871094 194.480469 C 223.800781 165.097656 267.769531 143.074219 264.839844 198.859375 C 261.917969 254.636719 282.460938 173.679688 282.460938 173.679688 C 282.460938 173.679688 313.273438 134.28125 351.445312 131.375 C 389.542969 128.433594 366.097656 126.957031 366.097656 113.738281 C 366.097656 100.566406 383.691406 135.753906 405.011719 126.957031 C 426.25 118.113281 382.21875 115.21875 386.644531 100.566406 C 391.015625 85.875 416.019531 90.25 426.25 109.363281 C 436.523438 128.433594 448.269531 99.089844 421.871094 68.238281 C 395.4375 37.460938 399.859375 56.535156 374.898438 69.707031 C 349.972656 82.921875 360.246094 90.25 355.820312 68.238281 C 351.445312 46.257812 349.972656 69.707031 338.226562 58.007812 C 326.445312 46.257812 359.164062 51.675781 376.367188 53.582031 C 393.574219 55.445312 388.113281 43.308594 388.113281 43.308594 L 405.011719 35.988281 C 405.011719 35.988281 416.019531 52.113281 429.199219 49.167969 C 442.375 46.257812 420.398438 25.675781 433.570312 28.621094 C 446.792969 31.5625 464.390625 19.828125 465.867188 37.460938 C 467.335938 55.054688 455.589844 78.542969 504.042969 52.113281 C 513.84375 46.78125 520.386719 43.308594 524.839844 41.234375 C 528.144531 42.316406 531.347656 43.445312 534.597656 44.65625 C 534.898438 48.164062 536.027344 52.722656 542.1875 56.535156 C 561.253906 68.238281 555.40625 57.960938 580.320312 72.660156 C 605.289062 87.351562 589.121094 103.472656 608.1875 106.414062 C 627.257812 109.363281 644.898438 135.753906 630.253906 137.226562 C 615.558594 138.699219 614.082031 121.113281 592.109375 118.113281 C 570.050781 115.21875 600.914062 125.441406 615.558594 138.699219 C 630.253906 151.882812 630.253906 167.527344 615.558594 173.679688 C 600.914062 179.792969 611.746094 213.550781 635.667969 209.132812 C 659.59375 204.710938 650.75 179.792969 663.960938 185.679688 C 677.1875 191.527344 672.765625 206.179688 694.785156 215.019531 C 716.839844 223.820312 691.835938 235.519531 718.277344 236.992188 C 744.710938 238.472656 757.882812 248.738281 734.394531 259.011719 C 710.910156 269.332031 722.6875 278.082031 702.105469 253.121094 C 681.566406 228.203125 683.601562 252.078125 681.566406 228.203125 C 679.570312 204.320312 646.378906 226.722656 628.773438 229.671875 C 611.140625 232.613281 625.828125 250.214844 609.660156 253.121094 C 593.496094 256.074219 586.179688 251.6875 590.589844 289.828125 C 594.972656 328.015625 584.742188 336.757812 567.101562 336.757812 C 549.503906 336.757812 581.835938 357.308594 590.589844 383.742188 C 599.394531 410.140625 600.914062 426.300781 639.050781 416.035156 C 677.1875 405.761719 665.4375 405.761719 669.859375 426.300781 C 674.234375 446.847656 690.40625 414.558594 693.3125 435.101562 C 696.257812 455.640625 656.644531 460.066406 678.613281 473.238281 C 700.636719 486.417969 684.558594 517.273438 674.234375 524.597656 C 663.960938 531.960938 671.296875 558.316406 649.320312 570.105469 C 627.257812 581.851562 659.59375 602.34375 646.378906 615.609375 C 633.195312 628.824219 597.925781 644.949219 611.140625 677.242188 C 624.394531 709.480469 624.394531 690.410156 652.265625 666.921875 C 680.089844 643.476562 703.625 603.863281 716.839844 605.335938 C 721.566406 605.859375 723.820312 609.539062 726.628906 612.664062 C 658.296875 718.109375 539.667969 788.015625 405.011719 788.015625 Z M 405.011719 0.015625 C 181.65625 0.015625 -0.0195312 181.691406 -0.0195312 405.027344 C -0.0195312 628.308594 181.65625 810.027344 405.011719 810.027344 C 628.304688 810.027344 809.980469 628.308594 809.980469 405.027344 C 809.980469 181.691406 628.304688 0.015625 405.011719 0.015625 " fill-opacity="1" fill-rule="nonzero"/></svg>