<svg xmlns="http://www.w3.org/2000/svg" xmlns:xlink="http://www.w3.org/1999/xlink" width="1080" zoomAndPan="magnify" viewBox="0 0 810 809.999993" height="1080" preserveAspectRatio="xMidYMid meet" version="1.0"><defs><clipPath id="c7f9901f85"><path d="M 78.019531 81 L 729 81 L 729 731.980469 L 78.019531 731.980469 Z M 78.019531 81 " clip-rule="nonzero"/></clipPath><clipPath id="e81a9f6ac6"><path d="M 403.507812 81 C 223.746094 81 78.019531 226.726562 78.019531 406.492188 C 78.019531 586.253906 223.746094 731.980469 403.507812 731.980469 C 583.273438 731.980469 729 586.253906 729 406.492188 C 729 226.726562 583.273438 81 403.507812 81 Z M 403.507812 81 " clip-rule="nonzero"/></clipPath></defs><g clip-path="url(#c7f9901f85)"><g clip-path="url(#e81a9f6ac6)"><path fill="#ffffff" d="M 78.019531 81 L 729 81 L 729 731.980469 L 78.019531 731.980469 Z M 78.019531 81 " fill-opacity="1" fill-rule="nonzero"/></g></g><path fill="#365ab7" d="M 810.019531 405 C 810.019531 411.628906 809.855469 418.253906 809.53125 424.871094 C 809.207031 431.492188 808.71875 438.101562 808.066406 444.695312 C 807.417969 451.292969 806.609375 457.871094 805.636719 464.425781 C 804.664062 470.980469 803.53125 477.511719 802.238281 484.011719 C 800.945312 490.511719 799.492188 496.976562 797.882812 503.40625 C 796.269531 509.835938 794.503906 516.222656 792.578125 522.566406 C 790.65625 528.90625 788.578125 535.199219 786.34375 541.441406 C 784.109375 547.679688 781.726562 553.863281 779.191406 559.988281 C 776.652344 566.109375 773.96875 572.167969 771.132812 578.160156 C 768.300781 584.152344 765.320312 590.070312 762.195312 595.914062 C 759.070312 601.761719 755.804688 607.527344 752.398438 613.210938 C 748.992188 618.898438 745.445312 624.496094 741.761719 630.003906 C 738.082031 635.515625 734.265625 640.933594 730.316406 646.257812 C 726.371094 651.582031 722.292969 656.804688 718.085938 661.929688 C 713.882812 667.054688 709.554688 672.070312 705.105469 676.980469 C 700.652344 681.890625 696.082031 686.691406 691.398438 691.378906 C 686.710938 696.066406 681.910156 700.632812 677 705.085938 C 672.089844 709.535156 667.070312 713.863281 661.949219 718.070312 C 656.824219 722.273438 651.601562 726.351562 646.277344 730.300781 C 640.953125 734.246094 635.535156 738.0625 630.023438 741.746094 C 624.511719 745.425781 618.914062 748.972656 613.230469 752.378906 C 607.542969 755.789062 601.78125 759.054688 595.933594 762.179688 C 590.089844 765.300781 584.171875 768.28125 578.179688 771.117188 C 572.1875 773.949219 566.128906 776.632812 560.003906 779.171875 C 553.882812 781.707031 547.699219 784.09375 541.457031 786.324219 C 535.21875 788.558594 528.925781 790.636719 522.582031 792.5625 C 516.242188 794.484375 509.855469 796.253906 503.425781 797.863281 C 496.996094 799.472656 490.53125 800.925781 484.03125 802.21875 C 477.53125 803.511719 471 804.644531 464.445312 805.617188 C 457.886719 806.589844 451.3125 807.398438 444.714844 808.050781 C 438.121094 808.699219 431.511719 809.1875 424.890625 809.511719 C 418.269531 809.835938 411.648438 810 405.019531 810 C 398.390625 810 391.765625 809.835938 385.144531 809.511719 C 378.527344 809.1875 371.917969 808.699219 365.320312 808.050781 C 358.726562 807.398438 352.148438 806.589844 345.59375 805.617188 C 339.035156 804.644531 332.507812 803.511719 326.007812 802.21875 C 319.507812 800.925781 313.042969 799.472656 306.613281 797.863281 C 300.183594 796.253906 293.796875 794.484375 287.453125 792.5625 C 281.109375 790.636719 274.820312 788.558594 268.578125 786.324219 C 262.335938 784.09375 256.15625 781.707031 250.03125 779.171875 C 243.90625 776.632812 237.851562 773.949219 231.859375 771.117188 C 225.867188 768.28125 219.949219 765.300781 214.101562 762.179688 C 208.257812 759.054688 202.492188 755.789062 196.808594 752.378906 C 191.121094 748.972656 185.523438 745.425781 180.011719 741.746094 C 174.5 738.0625 169.085938 734.246094 163.761719 730.300781 C 158.4375 726.351562 153.214844 722.273438 148.089844 718.070312 C 142.964844 713.863281 137.949219 709.535156 133.039062 705.085938 C 128.125 700.632812 123.328125 696.066406 118.640625 691.378906 C 113.953125 686.691406 109.382812 681.890625 104.933594 676.980469 C 100.480469 672.070312 96.152344 667.054688 91.949219 661.929688 C 87.746094 656.804688 83.667969 651.582031 79.71875 646.257812 C 75.769531 640.933594 71.957031 635.515625 68.273438 630.003906 C 64.589844 624.496094 61.046875 618.898438 57.636719 613.210938 C 54.230469 607.527344 50.964844 601.761719 47.839844 595.914062 C 44.714844 590.070312 41.738281 584.152344 38.902344 578.160156 C 36.070312 572.167969 33.382812 566.109375 30.847656 559.988281 C 28.3125 553.863281 25.925781 547.679688 23.691406 541.441406 C 21.460938 535.199219 19.382812 528.90625 17.457031 522.566406 C 15.535156 516.222656 13.765625 509.835938 12.15625 503.40625 C 10.546875 496.976562 9.09375 490.511719 7.800781 484.011719 C 6.507812 477.511719 5.375 470.980469 4.402344 464.425781 C 3.429688 457.871094 2.617188 451.292969 1.96875 444.695312 C 1.320312 438.101562 0.832031 431.492188 0.507812 424.871094 C 0.179688 418.253906 0.0195312 411.628906 0.0195312 405 C 0.0195312 398.371094 0.179688 391.746094 0.507812 385.128906 C 0.832031 378.507812 1.320312 371.898438 1.96875 365.304688 C 2.617188 358.707031 3.429688 352.128906 4.402344 345.574219 C 5.375 339.019531 6.507812 332.488281 7.800781 325.988281 C 9.09375 319.488281 10.546875 313.023438 12.15625 306.59375 C 13.765625 300.164062 15.535156 293.777344 17.457031 287.433594 C 19.382812 281.09375 21.460938 274.800781 23.691406 268.558594 C 25.925781 262.320312 28.3125 256.136719 30.847656 250.011719 C 33.382812 243.890625 36.070312 237.832031 38.902344 231.839844 C 41.738281 225.847656 44.714844 219.929688 47.839844 214.085938 C 50.964844 208.238281 54.230469 202.472656 57.636719 196.789062 C 61.046875 191.101562 64.589844 185.503906 68.273438 179.992188 C 71.957031 174.484375 75.769531 169.066406 79.71875 163.742188 C 83.667969 158.417969 87.746094 153.195312 91.949219 148.070312 C 96.152344 142.945312 100.480469 137.929688 104.933594 133.019531 C 109.382812 128.109375 113.953125 123.308594 118.640625 118.621094 C 123.328125 113.933594 128.125 109.367188 133.039062 104.914062 C 137.949219 100.464844 142.964844 96.136719 148.089844 91.929688 C 153.210938 87.726562 158.4375 83.648438 163.761719 79.699219 C 169.085938 75.753906 174.5 71.9375 180.011719 68.253906 C 185.523438 64.574219 191.121094 61.027344 196.808594 57.621094 C 202.492188 54.210938 208.257812 50.945312 214.101562 47.820312 C 219.949219 44.699219 225.867188 41.71875 231.859375 38.882812 C 237.851562 36.050781 243.90625 33.367188 250.03125 30.828125 C 256.15625 28.292969 262.335938 25.90625 268.578125 23.675781 C 274.820312 21.441406 281.109375 19.363281 287.453125 17.4375 C 293.796875 15.515625 300.183594 13.746094 306.613281 12.136719 C 313.042969 10.527344 319.507812 9.074219 326.007812 7.78125 C 332.507812 6.488281 339.035156 5.355469 345.59375 4.382812 C 352.148438 3.410156 358.726562 2.601562 365.320312 1.949219 C 371.917969 1.300781 378.527344 0.8125 385.144531 0.488281 C 391.765625 0.164062 398.390625 0 405.019531 0 C 411.648438 0 418.269531 0.164062 424.890625 0.488281 C 431.511719 0.8125 438.121094 1.300781 444.714844 1.949219 C 451.3125 2.601562 457.886719 3.410156 464.445312 4.382812 C 471 5.355469 477.527344 6.488281 484.03125 7.78125 C 490.53125 9.074219 496.996094 10.527344 503.425781 12.136719 C 509.855469 13.746094 516.242188 15.515625 522.582031 17.4375 C 528.925781 19.363281 535.21875 21.441406 541.457031 23.675781 C 547.699219 25.90625 553.882812 28.292969 560.003906 30.828125 C 566.128906 33.367188 572.1875 36.050781 578.179688 38.882812 C 584.171875 41.71875 590.089844 44.699219 595.933594 47.820312 C 601.78125 50.945312 607.542969 54.210938 613.230469 57.621094 C 618.914062 61.027344 624.511719 64.574219 630.023438 68.253906 C 635.535156 71.9375 640.953125 75.753906 646.277344 79.699219 C 651.601562 83.648438 656.824219 87.726562 661.949219 91.929688 C 667.070312 96.136719 672.089844 100.464844 677 104.914062 C 681.910156 109.367188 686.710938 113.933594 691.398438 118.621094 C 696.082031 123.308594 700.652344 128.109375 705.105469 133.019531 C 709.554688 137.929688 713.882812 142.945312 718.085938 148.070312 C 722.292969 153.195312 726.371094 158.417969 730.316406 163.742188 C 734.265625 169.066406 738.082031 174.484375 741.761719 179.992188 C 745.445312 185.503906 748.992188 191.101562 752.398438 196.789062 C 755.804688 202.472656 759.070312 208.238281 762.195312 214.085938 C 765.320312 219.929688 768.300781 225.847656 771.132812 231.839844 C 773.96875 237.832031 776.652344 243.890625 779.191406 250.011719 C 781.726562 256.136719 784.109375 262.320312 786.34375 268.558594 C 788.578125 274.800781 790.65625 281.09375 792.578125 287.433594 C 794.503906 293.777344 796.269531 300.164062 797.882812 306.59375 C 799.492188 313.023438 800.945312 319.488281 802.238281 325.988281 C 803.53125 332.488281 804.664062 339.019531 805.636719 345.574219 C 806.609375 352.128906 807.417969 358.707031 808.066406 365.304688 C 808.71875 371.898438 809.207031 378.507812 809.53125 385.128906 C 809.855469 391.746094 810.019531 398.371094 810.019531 405 Z M 810.019531 405 " fill-opacity="1" fill-rule="nonzero"/><path fill="#ffffff" d="M 403.820312 151.875 C 304.96875 151.875 224.550781 232.292969 224.550781 331.144531 C 224.550781 368.941406 233.601562 409.574219 251.449219 451.914062 C 265.53125 485.316406 285.113281 519.902344 309.648438 554.710938 C 351.246094 613.722656 392.289062 652.609375 394.019531 654.234375 C 396.773438 656.832031 400.296875 658.125 403.816406 658.125 C 407.429688 658.125 411.042969 656.761719 413.816406 654.046875 C 415.539062 652.359375 456.503906 612.058594 498.039062 552.367188 C 554.472656 471.273438 583.085938 396.84375 583.085938 331.144531 C 583.085938 232.292969 502.667969 151.875 403.820312 151.875 Z M 403.820312 392.648438 C 363.121094 392.648438 330.007812 359.539062 330.007812 318.839844 C 330.007812 278.140625 363.121094 245.03125 403.820312 245.03125 C 444.515625 245.03125 477.628906 278.140625 477.628906 318.839844 C 477.628906 359.539062 444.515625 392.648438 403.820312 392.648438 Z M 403.820312 392.648438 " fill-opacity="1" fill-rule="nonzero"/></svg>