<svg xmlns="http://www.w3.org/2000/svg" xmlns:xlink="http://www.w3.org/1999/xlink" width="1080" zoomAndPan="magnify" viewBox="0 0 810 809.999993" height="1080" preserveAspectRatio="xMidYMid meet" version="1.0"><defs><clipPath id="c93d5da2ce"><path d="M 653 227 L 704.230469 227 L 704.230469 238 L 653 238 Z M 653 227 " clip-rule="nonzero"/></clipPath><clipPath id="8adb7fb4a0"><path d="M 572 105.730469 L 583 105.730469 L 583 157 L 572 157 Z M 572 105.730469 " clip-rule="nonzero"/></clipPath><clipPath id="fe9438933d"><path d="M 121 122 L 689 122 L 689 688.976562 L 121 688.976562 Z M 121 122 " clip-rule="nonzero"/></clipPath></defs><path fill="#f0f1f1" d="M 810 405 C 810 411.628906 809.835938 418.253906 809.511719 424.871094 C 809.1875 431.492188 808.699219 438.101562 808.050781 444.695312 C 807.398438 451.292969 806.589844 457.871094 805.617188 464.425781 C 804.644531 470.980469 803.511719 477.511719 802.21875 484.011719 C 800.925781 490.511719 799.472656 496.976562 797.863281 503.40625 C 796.25 509.835938 794.484375 516.222656 792.5625 522.566406 C 790.636719 528.90625 788.558594 535.199219 786.324219 541.441406 C 784.09375 547.679688 781.707031 553.863281 779.171875 559.988281 C 776.632812 566.109375 773.949219 572.167969 771.117188 578.160156 C 768.28125 584.152344 765.300781 590.070312 762.179688 595.914062 C 759.054688 601.761719 755.789062 607.527344 752.378906 613.210938 C 748.972656 618.898438 745.425781 624.496094 741.746094 630.003906 C 738.0625 635.515625 734.246094 640.933594 730.296875 646.257812 C 726.351562 651.582031 722.273438 656.804688 718.070312 661.929688 C 713.863281 667.054688 709.535156 672.070312 705.085938 676.980469 C 700.632812 681.890625 696.066406 686.691406 691.378906 691.378906 C 686.691406 696.066406 681.890625 700.632812 676.980469 705.085938 C 672.070312 709.535156 667.054688 713.863281 661.929688 718.070312 C 656.804688 722.273438 651.582031 726.351562 646.257812 730.300781 C 640.933594 734.246094 635.515625 738.0625 630.003906 741.746094 C 624.496094 745.425781 618.898438 748.972656 613.210938 752.378906 C 607.527344 755.789062 601.761719 759.054688 595.914062 762.179688 C 590.070312 765.300781 584.152344 768.28125 578.160156 771.117188 C 572.167969 773.949219 566.109375 776.632812 559.988281 779.171875 C 553.863281 781.707031 547.679688 784.09375 541.441406 786.324219 C 535.199219 788.558594 528.90625 790.636719 522.566406 792.5625 C 516.222656 794.484375 509.835938 796.25 503.40625 797.863281 C 496.976562 799.472656 490.511719 800.925781 484.011719 802.21875 C 477.511719 803.511719 470.980469 804.644531 464.425781 805.617188 C 457.871094 806.589844 451.292969 807.398438 444.695312 808.050781 C 438.101562 808.699219 431.492188 809.1875 424.871094 809.511719 C 418.253906 809.835938 411.628906 810 405 810 C 398.371094 810 391.746094 809.835938 385.128906 809.511719 C 378.507812 809.1875 371.898438 808.699219 365.304688 808.050781 C 358.707031 807.398438 352.128906 806.589844 345.574219 805.617188 C 339.019531 804.644531 332.488281 803.511719 325.988281 802.21875 C 319.488281 800.925781 313.023438 799.472656 306.59375 797.863281 C 300.164062 796.25 293.777344 794.484375 287.433594 792.5625 C 281.09375 790.636719 274.800781 788.558594 268.558594 786.324219 C 262.320312 784.09375 256.136719 781.707031 250.011719 779.171875 C 243.890625 776.632812 237.832031 773.949219 231.839844 771.117188 C 225.847656 768.28125 219.929688 765.300781 214.085938 762.179688 C 208.238281 759.054688 202.472656 755.789062 196.789062 752.378906 C 191.101562 748.972656 185.503906 745.425781 179.992188 741.746094 C 174.484375 738.0625 169.066406 734.246094 163.742188 730.300781 C 158.417969 726.351562 153.195312 722.273438 148.070312 718.070312 C 142.945312 713.863281 137.929688 709.535156 133.019531 705.085938 C 128.109375 700.632812 123.308594 696.066406 118.621094 691.378906 C 113.933594 686.691406 109.367188 681.890625 104.914062 676.980469 C 100.464844 672.070312 96.136719 667.054688 91.929688 661.929688 C 87.726562 656.804688 83.648438 651.582031 79.699219 646.257812 C 75.753906 640.933594 71.9375 635.515625 68.253906 630.003906 C 64.574219 624.496094 61.027344 618.898438 57.621094 613.210938 C 54.210938 607.527344 50.945312 601.761719 47.820312 595.914062 C 44.699219 590.070312 41.71875 584.152344 38.882812 578.160156 C 36.050781 572.167969 33.363281 566.109375 30.828125 559.988281 C 28.292969 553.863281 25.90625 547.679688 23.675781 541.441406 C 21.441406 535.199219 19.363281 528.90625 17.4375 522.566406 C 15.515625 516.222656 13.746094 509.835938 12.136719 503.40625 C 10.527344 496.976562 9.074219 490.511719 7.78125 484.011719 C 6.488281 477.511719 5.355469 470.980469 4.382812 464.425781 C 3.410156 457.871094 2.601562 451.292969 1.949219 444.695312 C 1.300781 438.101562 0.8125 431.492188 0.488281 424.871094 C 0.164062 418.253906 0 411.628906 0 405 C 0 398.371094 0.164062 391.746094 0.488281 385.128906 C 0.8125 378.507812 1.300781 371.898438 1.949219 365.304688 C 2.601562 358.707031 3.410156 352.128906 4.382812 345.574219 C 5.355469 339.019531 6.488281 332.488281 7.78125 325.988281 C 9.074219 319.488281 10.527344 313.023438 12.136719 306.59375 C 13.746094 300.164062 15.515625 293.777344 17.4375 287.433594 C 19.363281 281.09375 21.441406 274.800781 23.675781 268.558594 C 25.90625 262.320312 28.292969 256.136719 30.828125 250.011719 C 33.363281 243.890625 36.050781 237.832031 38.882812 231.839844 C 41.71875 225.847656 44.699219 219.929688 47.820312 214.085938 C 50.945312 208.238281 54.210938 202.472656 57.621094 196.789062 C 61.027344 191.101562 64.574219 185.503906 68.253906 179.992188 C 71.9375 174.484375 75.753906 169.066406 79.699219 163.742188 C 83.648438 158.417969 87.726562 153.195312 91.929688 148.070312 C 96.136719 142.945312 100.464844 137.929688 104.914062 133.019531 C 109.367188 128.109375 113.933594 123.308594 118.621094 118.621094 C 123.308594 113.933594 128.109375 109.367188 133.019531 104.914062 C 137.929688 100.464844 142.945312 96.136719 148.070312 91.929688 C 153.195312 87.726562 158.417969 83.648438 163.742188 79.699219 C 169.066406 75.753906 174.484375 71.9375 179.992188 68.253906 C 185.503906 64.574219 191.101562 61.027344 196.789062 57.621094 C 202.472656 54.210938 208.238281 50.945312 214.085938 47.820312 C 219.929688 44.699219 225.847656 41.71875 231.839844 38.882812 C 237.832031 36.050781 243.890625 33.367188 250.011719 30.828125 C 256.136719 28.292969 262.320312 25.90625 268.558594 23.675781 C 274.800781 21.441406 281.09375 19.363281 287.433594 17.4375 C 293.777344 15.515625 300.164062 13.746094 306.59375 12.136719 C 313.023438 10.527344 319.488281 9.074219 325.988281 7.78125 C 332.488281 6.488281 339.019531 5.355469 345.574219 4.382812 C 352.128906 3.410156 358.707031 2.601562 365.304688 1.949219 C 371.898438 1.300781 378.507812 0.8125 385.128906 0.488281 C 391.746094 0.164062 398.371094 0 405 0 C 411.628906 0 418.253906 0.164062 424.871094 0.488281 C 431.492188 0.8125 438.101562 1.300781 444.695312 1.949219 C 451.292969 2.601562 457.871094 3.410156 464.425781 4.382812 C 470.980469 5.355469 477.511719 6.488281 484.011719 7.78125 C 490.511719 9.074219 496.976562 10.527344 503.40625 12.136719 C 509.835938 13.746094 516.222656 15.515625 522.566406 17.4375 C 528.90625 19.363281 535.199219 21.441406 541.441406 23.675781 C 547.679688 25.90625 553.863281 28.292969 559.988281 30.828125 C 566.109375 33.367188 572.167969 36.050781 578.160156 38.882812 C 584.152344 41.71875 590.070312 44.699219 595.914062 47.820312 C 601.761719 50.945312 607.527344 54.210938 613.210938 57.621094 C 618.898438 61.027344 624.496094 64.574219 630.003906 68.253906 C 635.515625 71.9375 640.933594 75.753906 646.257812 79.699219 C 651.582031 83.648438 656.804688 87.726562 661.929688 91.929688 C 667.054688 96.136719 672.070312 100.464844 676.980469 104.914062 C 681.890625 109.367188 686.691406 113.933594 691.378906 118.621094 C 696.066406 123.308594 700.632812 128.109375 705.085938 133.019531 C 709.535156 137.929688 713.863281 142.945312 718.070312 148.070312 C 722.273438 153.195312 726.351562 158.417969 730.300781 163.742188 C 734.246094 169.066406 738.0625 174.484375 741.746094 179.992188 C 745.425781 185.503906 748.972656 191.101562 752.378906 196.789062 C 755.789062 202.472656 759.054688 208.238281 762.179688 214.085938 C 765.300781 219.929688 768.28125 225.847656 771.117188 231.839844 C 773.949219 237.832031 776.632812 243.890625 779.171875 250.011719 C 781.707031 256.136719 784.09375 262.320312 786.324219 268.558594 C 788.558594 274.800781 790.636719 281.09375 792.5625 287.433594 C 794.484375 293.777344 796.253906 300.164062 797.863281 306.59375 C 799.472656 313.023438 800.925781 319.488281 802.21875 325.988281 C 803.511719 332.488281 804.644531 339.019531 805.617188 345.574219 C 806.589844 352.128906 807.398438 358.707031 808.050781 365.304688 C 808.699219 371.898438 809.1875 378.507812 809.511719 385.128906 C 809.835938 391.746094 810 398.371094 810 405 Z M 810 405 " fill-opacity="1" fill-rule="nonzero"/><path fill="#737373" d="M 420.753906 404.617188 C 420.753906 405.613281 420.65625 406.601562 420.460938 407.578125 C 420.269531 408.558594 419.980469 409.507812 419.597656 410.429688 C 419.214844 411.351562 418.75 412.226562 418.195312 413.054688 C 417.640625 413.882812 417.011719 414.652344 416.304688 415.355469 C 415.601562 416.0625 414.832031 416.691406 414.003906 417.246094 C 413.175781 417.800781 412.300781 418.265625 411.378906 418.648438 C 410.457031 419.03125 409.507812 419.316406 408.527344 419.511719 C 407.550781 419.707031 406.5625 419.804688 405.566406 419.804688 C 404.570312 419.804688 403.582031 419.707031 402.601562 419.511719 C 401.625 419.316406 400.675781 419.03125 399.753906 418.648438 C 398.832031 418.265625 397.957031 417.800781 397.128906 417.246094 C 396.296875 416.691406 395.53125 416.0625 394.828125 415.355469 C 394.121094 414.652344 393.492188 413.882812 392.9375 413.054688 C 392.382812 412.226562 391.914062 411.351562 391.535156 410.429688 C 391.152344 409.507812 390.863281 408.558594 390.667969 407.578125 C 390.476562 406.601562 390.378906 405.613281 390.378906 404.617188 C 390.378906 403.621094 390.476562 402.632812 390.667969 401.652344 C 390.863281 400.675781 391.152344 399.726562 391.535156 398.804688 C 391.914062 397.882812 392.382812 397.007812 392.9375 396.179688 C 393.492188 395.347656 394.121094 394.582031 394.828125 393.875 C 395.53125 393.171875 396.296875 392.542969 397.128906 391.988281 C 397.957031 391.433594 398.832031 390.964844 399.753906 390.585938 C 400.675781 390.203125 401.625 389.914062 402.601562 389.71875 C 403.582031 389.527344 404.570312 389.429688 405.566406 389.429688 C 406.5625 389.429688 407.550781 389.527344 408.527344 389.71875 C 409.507812 389.914062 410.457031 390.203125 411.378906 390.585938 C 412.300781 390.964844 413.175781 391.433594 414.003906 391.988281 C 414.832031 392.542969 415.601562 393.171875 416.304688 393.875 C 417.011719 394.582031 417.640625 395.347656 418.195312 396.179688 C 418.75 397.007812 419.214844 397.882812 419.597656 398.804688 C 419.980469 399.726562 420.269531 400.675781 420.460938 401.652344 C 420.65625 402.632812 420.753906 403.621094 420.753906 404.617188 Z M 420.753906 404.617188 " fill-opacity="1" fill-rule="nonzero"/><path fill="#737373" d="M 255.203125 576.453125 L 341.121094 490.535156 C 341.8125 489.824219 342.425781 489.058594 342.964844 488.230469 C 343.503906 487.398438 343.960938 486.527344 344.328125 485.609375 C 344.695312 484.691406 344.972656 483.75 345.160156 482.777344 C 345.34375 481.804688 345.433594 480.828125 345.425781 479.839844 C 345.417969 478.847656 345.316406 477.871094 345.117188 476.902344 C 344.921875 475.933594 344.632812 474.992188 344.25 474.082031 C 343.867188 473.167969 343.402344 472.300781 342.851562 471.480469 C 342.300781 470.660156 341.675781 469.902344 340.976562 469.203125 C 340.277344 468.503906 339.519531 467.878906 338.695312 467.328125 C 337.875 466.777344 337.007812 466.308594 336.097656 465.929688 C 335.183594 465.546875 334.246094 465.257812 333.277344 465.058594 C 332.308594 464.863281 331.328125 464.761719 330.339844 464.753906 C 329.351562 464.746094 328.371094 464.835938 327.402344 465.019531 C 326.429688 465.203125 325.484375 465.480469 324.570312 465.851562 C 323.652344 466.21875 322.777344 466.675781 321.949219 467.214844 C 321.121094 467.753906 320.351562 468.367188 319.644531 469.058594 L 233.730469 554.976562 C 233.03125 555.683594 232.40625 556.453125 231.855469 557.285156 C 231.304688 558.113281 230.839844 558.988281 230.460938 559.910156 C 230.082031 560.832031 229.796875 561.78125 229.601562 562.757812 C 229.410156 563.734375 229.3125 564.722656 229.3125 565.714844 C 229.3125 566.710938 229.410156 567.699219 229.601562 568.675781 C 229.796875 569.652344 230.082031 570.601562 230.460938 571.523438 C 230.839844 572.445312 231.304688 573.320312 231.855469 574.148438 C 232.40625 574.980469 233.03125 575.746094 233.730469 576.457031 C 234.449219 577.140625 235.222656 577.75 236.054688 578.285156 C 236.890625 578.820312 237.765625 579.273438 238.683594 579.640625 C 239.605469 580.011719 240.550781 580.289062 241.523438 580.476562 C 242.496094 580.664062 243.476562 580.757812 244.46875 580.757812 C 245.460938 580.757812 246.441406 580.664062 247.414062 580.472656 C 248.386719 580.285156 249.332031 580.007812 250.25 579.640625 C 251.171875 579.269531 252.046875 578.820312 252.878906 578.28125 C 253.714844 577.746094 254.488281 577.136719 255.203125 576.453125 Z M 255.203125 576.453125 " fill-opacity="1" fill-rule="nonzero"/><path fill="#737373" d="M 631.09375 300.800781 L 509.378906 179.089844 C 508.675781 178.386719 507.90625 177.757812 507.078125 177.207031 C 506.246094 176.65625 505.371094 176.1875 504.449219 175.808594 C 503.53125 175.429688 502.582031 175.140625 501.601562 174.945312 C 500.625 174.753906 499.636719 174.65625 498.640625 174.65625 C 497.644531 174.65625 496.660156 174.753906 495.679688 174.945312 C 494.703125 175.140625 493.753906 175.429688 492.832031 175.808594 C 491.914062 176.1875 491.035156 176.65625 490.207031 177.207031 C 489.378906 177.757812 488.609375 178.386719 487.902344 179.089844 L 441.359375 225.621094 L 584.558594 368.820312 L 631.09375 322.277344 C 631.796875 321.574219 632.425781 320.804688 632.980469 319.976562 C 633.53125 319.148438 634 318.273438 634.378906 317.351562 C 634.761719 316.429688 635.050781 315.480469 635.242188 314.503906 C 635.4375 313.523438 635.535156 312.539062 635.535156 311.539062 C 635.535156 310.542969 635.4375 309.554688 635.242188 308.578125 C 635.050781 307.601562 634.761719 306.652344 634.378906 305.730469 C 634 304.808594 633.53125 303.933594 632.980469 303.105469 C 632.425781 302.277344 631.796875 301.507812 631.09375 300.800781 Z M 631.09375 300.800781 " fill-opacity="1" fill-rule="nonzero"/><path fill="#737373" d="M 576.015625 374.597656 L 435.585938 234.167969 L 397.410156 310.542969 L 499.640625 412.773438 Z M 576.015625 374.597656 " fill-opacity="1" fill-rule="nonzero"/><path fill="#737373" d="M 319.601562 390.339844 L 419.84375 490.582031 L 491.53125 418.894531 L 391.289062 318.652344 Z M 430.878906 404.617188 C 430.878906 405.445312 430.839844 406.273438 430.757812 407.097656 C 430.675781 407.921875 430.554688 408.742188 430.394531 409.554688 C 430.230469 410.367188 430.03125 411.171875 429.789062 411.964844 C 429.546875 412.757812 429.269531 413.539062 428.953125 414.304688 C 428.636719 415.070312 428.28125 415.816406 427.890625 416.550781 C 427.5 417.28125 427.074219 417.992188 426.613281 418.679688 C 426.152344 419.371094 425.660156 420.035156 425.132812 420.675781 C 424.609375 421.316406 424.050781 421.929688 423.464844 422.515625 C 422.878906 423.101562 422.265625 423.65625 421.625 424.183594 C 420.984375 424.710938 420.320312 425.203125 419.628906 425.664062 C 418.941406 426.125 418.230469 426.550781 417.5 426.941406 C 416.765625 427.332031 416.019531 427.6875 415.253906 428.003906 C 414.488281 428.320312 413.707031 428.597656 412.914062 428.839844 C 412.121094 429.082031 411.316406 429.28125 410.503906 429.445312 C 409.691406 429.605469 408.871094 429.726562 408.046875 429.808594 C 407.222656 429.890625 406.394531 429.929688 405.566406 429.929688 C 404.738281 429.929688 403.910156 429.890625 403.085938 429.808594 C 402.261719 429.726562 401.441406 429.605469 400.628906 429.445312 C 399.816406 429.28125 399.011719 429.082031 398.21875 428.839844 C 397.425781 428.597656 396.644531 428.320312 395.878906 428.003906 C 395.113281 427.6875 394.363281 427.332031 393.632812 426.941406 C 392.902344 426.550781 392.191406 426.125 391.503906 425.664062 C 390.8125 425.203125 390.148438 424.710938 389.507812 424.183594 C 388.867188 423.65625 388.253906 423.101562 387.667969 422.515625 C 387.082031 421.929688 386.523438 421.316406 386 420.675781 C 385.472656 420.035156 384.980469 419.371094 384.519531 418.679688 C 384.058594 417.992188 383.632812 417.28125 383.242188 416.550781 C 382.851562 415.816406 382.496094 415.070312 382.179688 414.304688 C 381.863281 413.539062 381.582031 412.757812 381.34375 411.964844 C 381.101562 411.171875 380.902344 410.367188 380.738281 409.554688 C 380.578125 408.742188 380.457031 407.921875 380.375 407.097656 C 380.292969 406.273438 380.253906 405.445312 380.253906 404.617188 C 380.253906 403.789062 380.292969 402.960938 380.375 402.136719 C 380.457031 401.308594 380.578125 400.492188 380.738281 399.679688 C 380.902344 398.863281 381.101562 398.0625 381.34375 397.269531 C 381.582031 396.476562 381.863281 395.695312 382.179688 394.929688 C 382.496094 394.164062 382.851562 393.414062 383.242188 392.683594 C 383.632812 391.953125 384.058594 391.242188 384.519531 390.554688 C 384.980469 389.863281 385.472656 389.199219 386 388.558594 C 386.523438 387.917969 387.082031 387.304688 387.667969 386.71875 C 388.253906 386.132812 388.867188 385.574219 389.507812 385.050781 C 390.148438 384.523438 390.8125 384.03125 391.503906 383.570312 C 392.191406 383.109375 392.902344 382.683594 393.632812 382.292969 C 394.363281 381.902344 395.113281 381.546875 395.878906 381.230469 C 396.644531 380.914062 397.425781 380.632812 398.21875 380.394531 C 399.011719 380.152344 399.816406 379.953125 400.628906 379.789062 C 401.441406 379.628906 402.261719 379.507812 403.085938 379.425781 C 403.910156 379.34375 404.738281 379.304688 405.566406 379.304688 C 406.394531 379.304688 407.222656 379.34375 408.046875 379.425781 C 408.871094 379.507812 409.691406 379.628906 410.503906 379.789062 C 411.316406 379.953125 412.121094 380.15625 412.914062 380.394531 C 413.707031 380.636719 414.484375 380.914062 415.25 381.230469 C 416.015625 381.550781 416.765625 381.902344 417.496094 382.292969 C 418.226562 382.6875 418.9375 383.113281 419.628906 383.570312 C 420.316406 384.03125 420.980469 384.527344 421.621094 385.050781 C 422.261719 385.578125 422.875 386.132812 423.460938 386.71875 C 424.050781 387.304688 424.605469 387.917969 425.128906 388.558594 C 425.65625 389.199219 426.148438 389.867188 426.609375 390.554688 C 427.070312 391.246094 427.496094 391.953125 427.886719 392.6875 C 428.277344 393.417969 428.632812 394.164062 428.949219 394.929688 C 429.265625 395.695312 429.546875 396.476562 429.789062 397.269531 C 430.027344 398.0625 430.230469 398.867188 430.390625 399.679688 C 430.554688 400.492188 430.675781 401.3125 430.757812 402.136719 C 430.839844 402.960938 430.878906 403.789062 430.878906 404.617188 Z M 430.878906 404.617188 " fill-opacity="1" fill-rule="nonzero"/><path fill="#737373" d="M 215.816406 694.605469 L 219.460938 690.960938 L 119.121094 590.820312 L 115.574219 594.367188 C 105.816406 603.746094 105.761719 620.683594 115.574219 630.109375 L 180.074219 694.605469 C 189.59375 704.125 206.300781 704.125 215.816406 694.605469 Z M 215.816406 694.605469 " fill-opacity="1" fill-rule="nonzero"/><path fill="#737373" d="M 126.308594 583.636719 L 147.773438 562.167969 L 248.011719 662.410156 L 226.546875 683.875 Z M 126.308594 583.636719 " fill-opacity="1" fill-rule="nonzero"/><path fill="#737373" d="M 255.203125 655.21875 L 412.753906 497.667969 L 312.515625 397.425781 L 154.964844 554.976562 Z M 312.515625 461.925781 C 322.03125 452.308594 338.738281 452.308594 348.257812 461.925781 C 348.84375 462.511719 349.402344 463.121094 349.929688 463.761719 C 350.457031 464.398438 350.953125 465.0625 351.414062 465.75 C 351.878906 466.4375 352.304688 467.144531 352.699219 467.875 C 353.089844 468.605469 353.445312 469.351562 353.761719 470.117188 C 354.082031 470.882812 354.363281 471.660156 354.605469 472.453125 C 354.84375 473.246094 355.046875 474.050781 355.210938 474.863281 C 355.371094 475.675781 355.496094 476.492188 355.574219 477.316406 C 355.65625 478.140625 355.699219 478.96875 355.699219 479.796875 C 355.699219 480.625 355.65625 481.453125 355.574219 482.277344 C 355.496094 483.101562 355.371094 483.921875 355.210938 484.734375 C 355.046875 485.546875 354.84375 486.347656 354.605469 487.140625 C 354.363281 487.933594 354.082031 488.710938 353.761719 489.476562 C 353.445312 490.242188 353.089844 490.988281 352.699219 491.71875 C 352.304688 492.449219 351.878906 493.15625 351.414062 493.84375 C 350.953125 494.53125 350.457031 495.195312 349.929688 495.835938 C 349.402344 496.472656 348.84375 497.085938 348.257812 497.667969 L 262.394531 583.632812 C 252.976562 593.453125 235.964844 593.453125 226.550781 583.632812 C 216.726562 574.214844 216.726562 557.207031 226.550781 547.789062 Z M 312.515625 461.925781 " fill-opacity="1" fill-rule="nonzero"/><path fill="#737373" d="M 642.027344 175.3125 L 672.40625 144.9375 C 672.632812 144.699219 672.835938 144.445312 673.015625 144.167969 C 673.191406 143.890625 673.34375 143.601562 673.464844 143.296875 C 673.585938 142.992188 673.679688 142.675781 673.738281 142.351562 C 673.800781 142.03125 673.828125 141.703125 673.824219 141.375 C 673.824219 141.046875 673.789062 140.722656 673.722656 140.398438 C 673.65625 140.078125 673.558594 139.765625 673.433594 139.460938 C 673.304688 139.160156 673.148438 138.871094 672.964844 138.597656 C 672.785156 138.324219 672.574219 138.070312 672.34375 137.839844 C 672.109375 137.605469 671.859375 137.398438 671.585938 137.214844 C 671.3125 137.03125 671.023438 136.878906 670.722656 136.75 C 670.417969 136.625 670.105469 136.527344 669.78125 136.460938 C 669.460938 136.394531 669.136719 136.359375 668.808594 136.355469 C 668.476562 136.355469 668.152344 136.382812 667.828125 136.445312 C 667.507812 136.503906 667.191406 136.59375 666.886719 136.71875 C 666.582031 136.839844 666.289062 136.988281 666.015625 137.167969 C 665.738281 137.347656 665.480469 137.550781 665.246094 137.777344 L 634.871094 168.152344 C 634.640625 168.390625 634.4375 168.648438 634.257812 168.921875 C 634.082031 169.199219 633.929688 169.488281 633.808594 169.792969 C 633.6875 170.101562 633.597656 170.414062 633.535156 170.738281 C 633.476562 171.058594 633.445312 171.386719 633.449219 171.714844 C 633.453125 172.042969 633.484375 172.371094 633.550781 172.691406 C 633.617188 173.011719 633.714844 173.324219 633.84375 173.628906 C 633.96875 173.933594 634.125 174.21875 634.308594 174.492188 C 634.492188 174.765625 634.699219 175.019531 634.929688 175.25 C 635.164062 175.484375 635.417969 175.691406 635.691406 175.875 C 635.960938 176.058594 636.25 176.214844 636.554688 176.339844 C 636.855469 176.46875 637.167969 176.5625 637.492188 176.628906 C 637.8125 176.695312 638.140625 176.730469 638.46875 176.734375 C 638.796875 176.738281 639.121094 176.707031 639.445312 176.648438 C 639.769531 176.585938 640.082031 176.496094 640.386719 176.375 C 640.691406 176.25 640.984375 176.101562 641.257812 175.921875 C 641.535156 175.746094 641.792969 175.542969 642.027344 175.3125 Z M 642.027344 175.3125 " fill-opacity="1" fill-rule="nonzero"/><g clip-path="url(#c93d5da2ce)"><path fill="#737373" d="M 699.203125 227.421875 L 658.699219 227.421875 C 658.367188 227.421875 658.039062 227.457031 657.710938 227.519531 C 657.386719 227.585938 657.070312 227.679688 656.761719 227.808594 C 656.457031 227.933594 656.164062 228.089844 655.886719 228.277344 C 655.609375 228.460938 655.355469 228.671875 655.121094 228.90625 C 654.886719 229.140625 654.675781 229.394531 654.492188 229.671875 C 654.304688 229.949219 654.148438 230.242188 654.023438 230.546875 C 653.894531 230.855469 653.800781 231.171875 653.734375 231.496094 C 653.667969 231.824219 653.636719 232.152344 653.636719 232.484375 C 653.636719 232.816406 653.667969 233.148438 653.734375 233.472656 C 653.800781 233.800781 653.894531 234.117188 654.023438 234.421875 C 654.148438 234.730469 654.304688 235.023438 654.492188 235.296875 C 654.675781 235.574219 654.886719 235.832031 655.121094 236.066406 C 655.355469 236.300781 655.609375 236.511719 655.886719 236.695312 C 656.164062 236.878906 656.457031 237.035156 656.761719 237.164062 C 657.070312 237.289062 657.386719 237.386719 657.710938 237.449219 C 658.039062 237.515625 658.367188 237.546875 658.699219 237.546875 L 699.203125 237.546875 C 699.535156 237.546875 699.863281 237.515625 700.1875 237.449219 C 700.515625 237.386719 700.832031 237.289062 701.136719 237.164062 C 701.445312 237.035156 701.738281 236.878906 702.015625 236.695312 C 702.289062 236.511719 702.546875 236.300781 702.78125 236.066406 C 703.015625 235.832031 703.226562 235.574219 703.410156 235.296875 C 703.59375 235.023438 703.75 234.730469 703.878906 234.421875 C 704.003906 234.117188 704.101562 233.800781 704.167969 233.472656 C 704.230469 233.148438 704.265625 232.816406 704.265625 232.484375 C 704.265625 232.152344 704.230469 231.824219 704.167969 231.496094 C 704.101562 231.171875 704.003906 230.855469 703.878906 230.546875 C 703.75 230.242188 703.59375 229.949219 703.410156 229.671875 C 703.226562 229.394531 703.015625 229.140625 702.78125 228.90625 C 702.546875 228.671875 702.289062 228.460938 702.015625 228.277344 C 701.738281 228.089844 701.445312 227.933594 701.140625 227.808594 C 700.832031 227.679688 700.515625 227.585938 700.1875 227.519531 C 699.863281 227.457031 699.535156 227.421875 699.203125 227.421875 Z M 699.203125 227.421875 " fill-opacity="1" fill-rule="nonzero"/></g><g clip-path="url(#8adb7fb4a0)"><path fill="#737373" d="M 582.757812 151.484375 L 582.757812 110.980469 C 582.757812 110.648438 582.726562 110.320312 582.664062 109.992188 C 582.597656 109.667969 582.5 109.351562 582.375 109.042969 C 582.246094 108.738281 582.089844 108.445312 581.90625 108.167969 C 581.722656 107.890625 581.511719 107.636719 581.277344 107.402344 C 581.042969 107.167969 580.785156 106.957031 580.507812 106.773438 C 580.234375 106.585938 579.941406 106.429688 579.632812 106.304688 C 579.328125 106.175781 579.011719 106.082031 578.683594 106.015625 C 578.359375 105.949219 578.03125 105.917969 577.695312 105.917969 C 577.363281 105.917969 577.035156 105.949219 576.710938 106.015625 C 576.382812 106.082031 576.066406 106.175781 575.757812 106.304688 C 575.453125 106.429688 575.160156 106.585938 574.882812 106.773438 C 574.609375 106.957031 574.351562 107.167969 574.117188 107.402344 C 573.882812 107.636719 573.671875 107.890625 573.488281 108.167969 C 573.304688 108.445312 573.148438 108.738281 573.019531 109.042969 C 572.890625 109.351562 572.796875 109.667969 572.730469 109.992188 C 572.667969 110.320312 572.632812 110.648438 572.632812 110.980469 L 572.632812 151.484375 C 572.632812 151.816406 572.667969 152.144531 572.730469 152.46875 C 572.796875 152.796875 572.890625 153.113281 573.019531 153.421875 C 573.148438 153.726562 573.304688 154.019531 573.488281 154.296875 C 573.671875 154.570312 573.882812 154.828125 574.117188 155.0625 C 574.351562 155.296875 574.609375 155.507812 574.882812 155.691406 C 575.160156 155.875 575.453125 156.03125 575.757812 156.160156 C 576.066406 156.289062 576.382812 156.382812 576.710938 156.449219 C 577.035156 156.511719 577.363281 156.546875 577.695312 156.546875 C 578.03125 156.546875 578.359375 156.511719 578.683594 156.449219 C 579.011719 156.382812 579.328125 156.289062 579.632812 156.160156 C 579.941406 156.03125 580.234375 155.875 580.507812 155.691406 C 580.785156 155.507812 581.042969 155.296875 581.277344 155.0625 C 581.511719 154.828125 581.722656 154.570312 581.90625 154.296875 C 582.089844 154.019531 582.246094 153.726562 582.375 153.421875 C 582.5 153.113281 582.597656 152.796875 582.664062 152.46875 C 582.726562 152.144531 582.757812 151.816406 582.757812 151.484375 Z M 582.757812 151.484375 " fill-opacity="1" fill-rule="nonzero"/></g><path fill="#d38686" d="M 405 0 C 181.546875 0 0 181.546875 0 405 C 0 628.453125 181.546875 810 405 810 C 628.453125 810 810 628.453125 810 405 C 810 181.546875 628.453125 0 405 0 Z M 405 17.609375 C 619.175781 17.609375 792.390625 190.824219 792.390625 405 C 792.390625 619.175781 619.175781 792.390625 405 792.390625 C 190.824219 792.390625 17.609375 619.175781 17.609375 405 C 17.609375 190.824219 190.824219 17.609375 405 17.609375 Z M 405 17.609375 " fill-opacity="1" fill-rule="nonzero"/><g clip-path="url(#fe9438933d)"><path fill="#d38686" d="M 685.476562 672.554688 C 689.167969 676.246094 689.167969 682.226562 685.476562 685.921875 C 683.632812 687.765625 681.214844 688.6875 678.796875 688.6875 C 676.378906 688.6875 673.957031 687.765625 672.113281 685.921875 L 404.957031 418.761719 L 137.800781 685.921875 C 135.953125 687.765625 133.535156 688.6875 131.117188 688.6875 C 128.699219 688.6875 126.277344 687.765625 124.433594 685.921875 C 120.742188 682.226562 120.742188 676.246094 124.433594 672.554688 L 391.589844 405.398438 L 124.433594 138.242188 C 120.742188 134.550781 120.742188 128.566406 124.433594 124.875 C 128.125 121.183594 134.109375 121.183594 137.800781 124.875 L 404.957031 392.03125 L 672.113281 124.875 C 675.804688 121.183594 681.785156 121.183594 685.476562 124.875 C 689.167969 128.566406 689.167969 134.550781 685.476562 138.242188 L 418.320312 405.398438 Z M 685.476562 672.554688 " fill-opacity="1" fill-rule="nonzero"/></g></svg>