<svg xmlns="http://www.w3.org/2000/svg" xmlns:xlink="http://www.w3.org/1999/xlink" width="1080" zoomAndPan="magnify" viewBox="0 0 810 809.999993" height="1080" preserveAspectRatio="xMidYMid meet" version="1.0"><defs><g/><clipPath id="06f77dc823"><path d="M 0 0.503906 L 810 0.503906 L 810 810 L 0 810 Z M 0 0.503906 " clip-rule="nonzero"/></clipPath><clipPath id="42f46d4706"><path d="M 495 131.199219 L 709.097656 131.199219 L 709.097656 346 L 495 346 Z M 495 131.199219 " clip-rule="nonzero"/></clipPath></defs><g clip-path="url(#06f77dc823)"><path fill="#648fff" d="M 810 405.503906 C 810 412.132812 809.835938 418.757812 809.511719 425.375 C 809.1875 431.996094 808.699219 438.605469 808.050781 445.199219 C 807.398438 451.796875 806.589844 458.375 805.617188 464.929688 C 804.644531 471.484375 803.511719 478.015625 802.21875 484.515625 C 800.925781 491.015625 799.472656 497.480469 797.863281 503.910156 C 796.25 510.339844 794.484375 516.726562 792.5625 523.070312 C 790.636719 529.410156 788.558594 535.703125 786.324219 541.945312 C 784.09375 548.183594 781.707031 554.367188 779.171875 560.492188 C 776.632812 566.613281 773.949219 572.671875 771.117188 578.664062 C 768.28125 584.65625 765.300781 590.574219 762.179688 596.417969 C 759.054688 602.265625 755.789062 608.03125 752.378906 613.714844 C 748.972656 619.402344 745.425781 625 741.746094 630.507812 C 738.0625 636.019531 734.246094 641.4375 730.296875 646.761719 C 726.351562 652.085938 722.273438 657.308594 718.070312 662.433594 C 713.863281 667.558594 709.535156 672.574219 705.085938 677.484375 C 700.632812 682.394531 696.066406 687.195312 691.378906 691.882812 C 686.691406 696.570312 681.890625 701.136719 676.980469 705.589844 C 672.070312 710.039062 667.054688 714.367188 661.929688 718.574219 C 656.804688 722.777344 651.582031 726.855469 646.257812 730.804688 C 640.933594 734.75 635.515625 738.566406 630.003906 742.25 C 624.496094 745.929688 618.898438 749.476562 613.210938 752.882812 C 607.527344 756.292969 601.761719 759.558594 595.914062 762.683594 C 590.070312 765.804688 584.152344 768.785156 578.160156 771.621094 C 572.167969 774.453125 566.109375 777.136719 559.988281 779.675781 C 553.863281 782.210938 547.679688 784.597656 541.441406 786.828125 C 535.199219 789.0625 528.90625 791.140625 522.566406 793.066406 C 516.222656 794.988281 509.835938 796.753906 503.40625 798.367188 C 496.976562 799.976562 490.511719 801.429688 484.011719 802.722656 C 477.511719 804.015625 470.980469 805.148438 464.425781 806.121094 C 457.871094 807.09375 451.292969 807.902344 444.695312 808.554688 C 438.101562 809.203125 431.492188 809.691406 424.871094 810.015625 C 418.253906 810.339844 411.628906 810.503906 405 810.503906 C 398.371094 810.503906 391.746094 810.339844 385.128906 810.015625 C 378.507812 809.691406 371.898438 809.203125 365.304688 808.554688 C 358.707031 807.902344 352.128906 807.09375 345.574219 806.121094 C 339.019531 805.148438 332.488281 804.015625 325.988281 802.722656 C 319.488281 801.429688 313.023438 799.976562 306.59375 798.367188 C 300.164062 796.753906 293.777344 794.988281 287.433594 793.066406 C 281.09375 791.140625 274.800781 789.0625 268.558594 786.828125 C 262.320312 784.597656 256.136719 782.210938 250.011719 779.675781 C 243.890625 777.136719 237.832031 774.453125 231.839844 771.621094 C 225.847656 768.785156 219.929688 765.804688 214.085938 762.683594 C 208.238281 759.558594 202.472656 756.292969 196.789062 752.882812 C 191.101562 749.476562 185.503906 745.929688 179.992188 742.25 C 174.484375 738.566406 169.066406 734.75 163.742188 730.804688 C 158.417969 726.855469 153.195312 722.777344 148.070312 718.574219 C 142.945312 714.367188 137.929688 710.039062 133.019531 705.589844 C 128.109375 701.136719 123.308594 696.570312 118.621094 691.882812 C 113.933594 687.195312 109.367188 682.394531 104.914062 677.484375 C 100.464844 672.574219 96.136719 667.558594 91.929688 662.433594 C 87.726562 657.308594 83.648438 652.085938 79.699219 646.761719 C 75.753906 641.4375 71.9375 636.019531 68.253906 630.507812 C 64.574219 625 61.027344 619.402344 57.621094 613.714844 C 54.210938 608.03125 50.945312 602.265625 47.820312 596.417969 C 44.699219 590.574219 41.71875 584.65625 38.882812 578.664062 C 36.050781 572.671875 33.363281 566.613281 30.828125 560.492188 C 28.292969 554.367188 25.90625 548.183594 23.675781 541.945312 C 21.441406 535.703125 19.363281 529.410156 17.4375 523.070312 C 15.515625 516.726562 13.746094 510.339844 12.136719 503.910156 C 10.527344 497.480469 9.074219 491.015625 7.78125 484.515625 C 6.488281 478.015625 5.355469 471.484375 4.382812 464.929688 C 3.410156 458.375 2.601562 451.796875 1.949219 445.199219 C 1.300781 438.605469 0.8125 431.996094 0.488281 425.375 C 0.164062 418.757812 0 412.132812 0 405.503906 C 0 398.875 0.164062 392.25 0.488281 385.632812 C 0.8125 379.011719 1.300781 372.402344 1.949219 365.808594 C 2.601562 359.210938 3.410156 352.632812 4.382812 346.078125 C 5.355469 339.523438 6.488281 332.992188 7.78125 326.492188 C 9.074219 319.992188 10.527344 313.527344 12.136719 307.097656 C 13.746094 300.667969 15.515625 294.28125 17.4375 287.9375 C 19.363281 281.597656 21.441406 275.304688 23.675781 269.0625 C 25.90625 262.824219 28.292969 256.640625 30.828125 250.515625 C 33.363281 244.394531 36.050781 238.335938 38.882812 232.34375 C 41.71875 226.351562 44.699219 220.433594 47.820312 214.589844 C 50.945312 208.742188 54.210938 202.976562 57.621094 197.292969 C 61.027344 191.605469 64.574219 186.007812 68.253906 180.496094 C 71.9375 174.988281 75.753906 169.570312 79.699219 164.246094 C 83.648438 158.921875 87.726562 153.699219 91.929688 148.574219 C 96.136719 143.449219 100.464844 138.433594 104.914062 133.523438 C 109.367188 128.613281 113.933594 123.8125 118.621094 119.125 C 123.308594 114.4375 128.109375 109.871094 133.019531 105.417969 C 137.929688 100.96875 142.945312 96.640625 148.070312 92.433594 C 153.195312 88.230469 158.417969 84.152344 163.742188 80.203125 C 169.066406 76.257812 174.484375 72.441406 179.992188 68.757812 C 185.503906 65.078125 191.101562 61.53125 196.789062 58.125 C 202.472656 54.714844 208.238281 51.449219 214.085938 48.324219 C 219.929688 45.203125 225.847656 42.222656 231.839844 39.386719 C 237.832031 36.554688 243.890625 33.871094 250.011719 31.332031 C 256.136719 28.796875 262.320312 26.410156 268.558594 24.179688 C 274.800781 21.945312 281.09375 19.867188 287.433594 17.941406 C 293.777344 16.019531 300.164062 14.25 306.59375 12.640625 C 313.023438 11.03125 319.488281 9.578125 325.988281 8.285156 C 332.488281 6.992188 339.019531 5.859375 345.574219 4.886719 C 352.128906 3.914062 358.707031 3.105469 365.304688 2.453125 C 371.898438 1.804688 378.507812 1.316406 385.128906 0.992188 C 391.746094 0.667969 398.371094 0.503906 405 0.503906 C 411.628906 0.503906 418.253906 0.667969 424.871094 0.992188 C 431.492188 1.316406 438.101562 1.804688 444.695312 2.453125 C 451.292969 3.105469 457.871094 3.914062 464.425781 4.886719 C 470.980469 5.859375 477.511719 6.992188 484.011719 8.285156 C 490.511719 9.578125 496.976562 11.03125 503.40625 12.640625 C 509.835938 14.25 516.222656 16.019531 522.566406 17.941406 C 528.90625 19.867188 535.199219 21.945312 541.441406 24.179688 C 547.679688 26.410156 553.863281 28.796875 559.988281 31.332031 C 566.109375 33.871094 572.167969 36.554688 578.160156 39.386719 C 584.152344 42.222656 590.070312 45.203125 595.914062 48.324219 C 601.761719 51.449219 607.527344 54.714844 613.210938 58.125 C 618.898438 61.53125 624.496094 65.078125 630.003906 68.757812 C 635.515625 72.441406 640.933594 76.257812 646.257812 80.203125 C 651.582031 84.152344 656.804688 88.230469 661.929688 92.433594 C 667.054688 96.640625 672.070312 100.96875 676.980469 105.417969 C 681.890625 109.871094 686.691406 114.4375 691.378906 119.125 C 696.066406 123.8125 700.632812 128.613281 705.085938 133.523438 C 709.535156 138.433594 713.863281 143.449219 718.070312 148.574219 C 722.273438 153.699219 726.351562 158.921875 730.300781 164.246094 C 734.246094 169.570312 738.0625 174.988281 741.746094 180.496094 C 745.425781 186.007812 748.972656 191.605469 752.378906 197.292969 C 755.789062 202.976562 759.054688 208.742188 762.179688 214.589844 C 765.300781 220.433594 768.28125 226.351562 771.117188 232.34375 C 773.949219 238.335938 776.632812 244.394531 779.171875 250.515625 C 781.707031 256.640625 784.09375 262.824219 786.324219 269.0625 C 788.558594 275.304688 790.636719 281.597656 792.5625 287.9375 C 794.484375 294.28125 796.253906 300.667969 797.863281 307.097656 C 799.472656 313.527344 800.925781 319.992188 802.21875 326.492188 C 803.511719 332.992188 804.644531 339.523438 805.617188 346.078125 C 806.589844 352.632812 807.398438 359.210938 808.050781 365.808594 C 808.699219 372.402344 809.1875 379.011719 809.511719 385.632812 C 809.835938 392.25 810 398.875 810 405.503906 Z M 810 405.503906 " fill-opacity="1" fill-rule="nonzero"/></g><path fill="#ffffff" d="M 286.699219 236.777344 C 286.699219 270.148438 263.566406 296.675781 230.191406 296.675781 C 196.816406 296.675781 168.78125 272.222656 168.78125 238.847656 C 168.78125 205.472656 194.105469 181.019531 227.480469 181.019531 C 263.523438 181.019531 286.699219 203.402344 286.699219 236.777344 Z M 232.734375 118.011719 C 230.90625 115.183594 223.277344 114.902344 221.207031 118.105469 C 219.074219 121.398438 221 166.800781 226.972656 166.796875 C 233.5 166.796875 234.308594 120.445312 232.734375 118.011719 Z M 171.644531 131.703125 C 168.652344 130.167969 161.902344 133.738281 161.710938 137.550781 C 161.511719 141.46875 185.878906 179.824219 191.050781 176.835938 C 196.703125 173.570312 174.230469 133.027344 171.644531 131.703125 Z M 125.589844 174.105469 C 122.230469 174.273438 118.167969 180.742188 119.90625 184.136719 C 121.695312 187.628906 161.976562 208.664062 164.960938 203.488281 C 168.222656 197.835938 128.488281 173.960938 125.589844 174.105469 Z M 106.90625 233.855469 C 104.078125 235.683594 103.796875 243.3125 107 245.382812 C 110.292969 247.515625 155.691406 245.589844 155.691406 239.617188 C 155.691406 233.089844 109.339844 232.28125 106.90625 233.855469 Z M 120.597656 294.945312 C 119.0625 297.9375 122.632812 304.6875 126.441406 304.878906 C 130.363281 305.078125 168.71875 280.710938 165.730469 275.539062 C 162.464844 269.886719 121.921875 292.359375 120.597656 294.945312 Z M 163 341 C 163.167969 344.359375 169.636719 348.417969 173.03125 346.683594 C 176.523438 344.894531 197.558594 304.613281 192.382812 301.628906 C 186.730469 298.367188 162.855469 338.101562 163 341 Z M 222.75 359.683594 C 224.578125 362.511719 232.207031 362.792969 234.277344 359.589844 C 236.410156 356.296875 234.484375 310.894531 228.511719 310.898438 C 221.984375 310.898438 221.175781 357.25 222.75 359.683594 Z M 283.835938 345.992188 C 286.832031 347.527344 293.582031 343.957031 293.773438 340.148438 C 293.972656 336.226562 269.605469 297.871094 264.433594 300.859375 C 258.78125 304.125 281.253906 344.667969 283.835938 345.992188 Z M 329.894531 303.589844 C 333.253906 303.421875 337.3125 296.953125 335.578125 293.558594 C 333.789062 290.066406 293.507812 269.03125 290.523438 274.207031 C 287.261719 279.859375 326.996094 303.734375 329.894531 303.589844 Z M 348.578125 243.839844 C 351.40625 242.011719 351.6875 234.382812 348.484375 232.3125 C 345.191406 230.179688 299.789062 232.105469 299.792969 238.078125 C 299.792969 244.605469 346.144531 245.414062 348.578125 243.839844 Z M 334.886719 182.753906 C 336.421875 179.757812 332.851562 173.007812 329.039062 172.816406 C 325.121094 172.617188 286.765625 196.984375 289.753906 202.15625 C 293.019531 207.808594 333.5625 185.335938 334.886719 182.753906 Z M 292.484375 136.695312 C 292.3125 133.335938 285.847656 129.277344 282.453125 131.011719 C 278.957031 132.800781 257.925781 173.082031 263.101562 176.066406 C 268.753906 179.328125 292.628906 139.59375 292.484375 136.695312 Z M 292.484375 136.695312 " fill-opacity="1" fill-rule="nonzero"/><g clip-path="url(#42f46d4706)"><path fill="#ffffff" d="M 709.15625 248.445312 C 708.996094 250.117188 708.796875 251.785156 708.558594 253.445312 C 708.320312 255.109375 708.042969 256.761719 707.722656 258.410156 C 707.40625 260.0625 707.050781 261.699219 706.660156 263.332031 C 706.265625 264.964844 705.832031 266.585938 705.363281 268.199219 C 704.890625 269.8125 704.382812 271.410156 703.839844 273 C 703.292969 274.585938 702.710938 276.160156 702.089844 277.722656 C 701.46875 279.28125 700.816406 280.828125 700.121094 282.355469 C 699.429688 283.886719 698.703125 285.398438 697.9375 286.894531 C 697.175781 288.390625 696.375 289.867188 695.542969 291.324219 C 694.710938 292.78125 693.84375 294.21875 692.941406 295.636719 C 692.042969 297.054688 691.109375 298.449219 690.140625 299.820312 C 689.175781 301.195312 688.179688 302.542969 687.148438 303.871094 C 686.117188 305.195312 685.058594 306.496094 683.96875 307.773438 C 682.875 309.050781 681.753906 310.300781 680.605469 311.523438 C 679.457031 312.746094 678.277344 313.941406 677.070312 315.109375 C 675.867188 316.277344 674.632812 317.417969 673.371094 318.527344 C 672.113281 319.636719 670.828125 320.71875 669.515625 321.765625 C 668.207031 322.816406 666.871094 323.835938 665.515625 324.820312 C 664.15625 325.808594 662.773438 326.761719 661.371094 327.683594 C 659.96875 328.605469 658.542969 329.492188 657.097656 330.347656 C 655.652344 331.203125 654.1875 332.023438 652.707031 332.808594 C 651.222656 333.59375 649.71875 334.347656 648.199219 335.0625 C 646.683594 335.777344 645.148438 336.457031 643.597656 337.097656 C 642.042969 337.742188 640.480469 338.347656 638.898438 338.917969 C 637.320312 339.484375 635.726562 340.019531 634.125 340.511719 C 632.519531 341.007812 630.902344 341.464844 629.277344 341.882812 C 627.652344 342.300781 626.015625 342.679688 624.371094 343.019531 C 622.730469 343.363281 621.078125 343.664062 619.417969 343.929688 C 617.761719 344.191406 616.097656 344.417969 614.429688 344.601562 C 612.761719 344.789062 611.089844 344.933594 609.414062 345.042969 C 607.738281 345.148438 606.058594 345.214844 604.382812 345.242188 C 602.703125 345.269531 601.023438 345.257812 599.347656 345.207031 C 597.667969 345.15625 595.992188 345.066406 594.316406 344.9375 C 592.644531 344.808594 590.972656 344.636719 589.308594 344.429688 C 587.640625 344.21875 585.980469 343.972656 584.328125 343.6875 C 582.671875 343.398438 581.027344 343.074219 579.386719 342.710938 C 577.746094 342.34375 576.117188 341.941406 574.5 341.503906 C 572.878906 341.0625 571.269531 340.582031 569.671875 340.066406 C 568.074219 339.550781 566.488281 338.996094 564.917969 338.40625 C 563.347656 337.8125 561.789062 337.1875 560.246094 336.519531 C 558.707031 335.855469 557.179688 335.15625 555.671875 334.421875 C 554.164062 333.683594 552.671875 332.914062 551.199219 332.105469 C 549.726562 331.300781 548.273438 330.460938 546.839844 329.585938 C 545.40625 328.710938 543.996094 327.800781 542.605469 326.859375 C 541.214844 325.921875 539.847656 324.945312 538.5 323.941406 C 537.15625 322.9375 535.835938 321.898438 534.542969 320.832031 C 533.246094 319.765625 531.976562 318.667969 530.730469 317.539062 C 529.488281 316.410156 528.269531 315.253906 527.078125 314.070312 C 525.890625 312.886719 524.730469 311.675781 523.597656 310.433594 C 522.464844 309.195312 521.359375 307.929688 520.285156 306.640625 C 519.214844 305.347656 518.171875 304.03125 517.160156 302.691406 C 516.148438 301.351562 515.167969 299.988281 514.222656 298.601562 C 513.273438 297.214844 512.359375 295.808594 511.480469 294.378906 C 510.597656 292.949219 509.753906 291.5 508.9375 290.03125 C 508.125 288.5625 507.347656 287.074219 506.605469 285.570312 C 505.863281 284.0625 505.15625 282.539062 504.484375 281 C 503.8125 279.460938 503.179688 277.910156 502.582031 276.339844 C 501.984375 274.769531 501.421875 273.1875 500.898438 271.59375 C 500.375 269.996094 499.890625 268.390625 499.441406 266.773438 C 498.996094 265.15625 498.585938 263.527344 498.214844 261.890625 C 497.84375 260.253906 497.507812 258.605469 497.214844 256.953125 C 496.921875 255.300781 496.667969 253.640625 496.449219 251.976562 C 496.234375 250.3125 496.058594 248.640625 495.921875 246.96875 C 495.785156 245.296875 495.6875 243.621094 495.628906 241.941406 C 495.570312 240.261719 495.550781 238.585938 495.570312 236.90625 C 495.589844 235.226562 495.652344 233.550781 495.75 231.875 C 495.851562 230.199219 495.988281 228.523438 496.167969 226.855469 C 496.34375 225.1875 496.5625 223.523438 496.820312 221.863281 C 497.074219 220.203125 497.371094 218.550781 497.707031 216.90625 C 498.039062 215.257812 498.414062 213.625 498.824219 211.996094 C 499.234375 210.367188 499.683594 208.75 500.171875 207.144531 C 500.660156 205.535156 501.183594 203.941406 501.746094 202.359375 C 502.308594 200.777344 502.910156 199.210938 503.542969 197.65625 C 504.179688 196.101562 504.851562 194.566406 505.5625 193.042969 C 506.269531 191.519531 507.015625 190.015625 507.792969 188.527344 C 508.574219 187.042969 509.386719 185.574219 510.234375 184.125 C 511.082031 182.675781 511.964844 181.246094 512.882812 179.839844 C 513.796875 178.433594 514.746094 177.046875 515.726562 175.683594 C 516.707031 174.324219 517.71875 172.984375 518.761719 171.667969 C 519.808594 170.351562 520.882812 169.0625 521.984375 167.796875 C 523.089844 166.535156 524.222656 165.296875 525.386719 164.085938 C 526.550781 162.875 527.742188 161.691406 528.957031 160.535156 C 530.175781 159.378906 531.421875 158.253906 532.695312 157.15625 C 533.964844 156.0625 535.261719 154.996094 536.582031 153.960938 C 537.90625 152.925781 539.25 151.921875 540.617188 150.949219 C 541.988281 149.976562 543.378906 149.035156 544.792969 148.128906 C 546.203125 147.222656 547.636719 146.347656 549.09375 145.511719 C 550.546875 144.671875 552.019531 143.867188 553.511719 143.097656 C 555.003906 142.324219 556.511719 141.589844 558.039062 140.890625 C 559.566406 140.191406 561.109375 139.53125 562.667969 138.902344 C 564.222656 138.277344 565.796875 137.6875 567.382812 137.136719 C 568.964844 136.582031 570.5625 136.066406 572.175781 135.589844 C 573.785156 135.113281 575.402344 134.675781 577.035156 134.273438 C 578.664062 133.871094 580.304688 133.507812 581.949219 133.183594 C 583.597656 132.863281 585.253906 132.578125 586.914062 132.332031 C 588.574219 132.085938 590.238281 131.878906 591.910156 131.710938 C 592.507812 131.621094 593.105469 131.640625 593.695312 131.761719 C 594.289062 131.886719 594.839844 132.109375 595.351562 132.429688 C 595.867188 132.75 596.308594 133.148438 596.679688 133.625 C 597.050781 134.105469 597.328125 134.628906 597.511719 135.207031 C 597.695312 135.78125 597.773438 136.371094 597.75 136.976562 C 597.722656 137.582031 597.59375 138.164062 597.359375 138.71875 C 597.128906 139.277344 596.808594 139.78125 596.394531 140.222656 C 595.984375 140.667969 595.511719 141.027344 594.972656 141.300781 C 593.6875 142.019531 592.429688 142.773438 591.1875 143.5625 C 589.949219 144.355469 588.734375 145.179688 587.542969 146.039062 C 586.351562 146.898438 585.1875 147.792969 584.046875 148.722656 C 582.90625 149.648438 581.792969 150.609375 580.710938 151.601562 C 579.625 152.59375 578.570312 153.617188 577.542969 154.667969 C 576.519531 155.722656 575.523438 156.804688 574.558594 157.914062 C 573.597656 159.023438 572.667969 160.160156 571.769531 161.324219 C 570.871094 162.488281 570.007812 163.675781 569.179688 164.890625 C 568.351562 166.105469 567.558594 167.339844 566.800781 168.601562 C 566.042969 169.859375 565.320312 171.140625 564.636719 172.441406 C 563.953125 173.742188 563.308594 175.0625 562.699219 176.398438 C 562.09375 177.738281 561.523438 179.09375 560.992188 180.464844 C 560.464844 181.835938 559.972656 183.21875 559.523438 184.617188 C 559.074219 186.019531 558.667969 187.429688 558.296875 188.851562 C 557.929688 190.273438 557.601562 191.707031 557.316406 193.148438 C 557.03125 194.589844 556.789062 196.039062 556.585938 197.496094 C 556.382812 198.953125 556.222656 200.410156 556.105469 201.875 C 555.988281 203.339844 555.914062 204.808594 555.878906 206.277344 C 555.847656 207.746094 555.855469 209.21875 555.90625 210.6875 C 555.957031 212.15625 556.054688 213.621094 556.1875 215.085938 C 556.324219 216.546875 556.503906 218.007812 556.722656 219.460938 C 556.945312 220.914062 557.207031 222.359375 557.511719 223.796875 C 557.8125 225.234375 558.160156 226.660156 558.542969 228.082031 C 558.929688 229.5 559.359375 230.902344 559.824219 232.296875 C 560.292969 233.691406 560.800781 235.070312 561.347656 236.433594 C 561.894531 237.796875 562.476562 239.144531 563.101562 240.476562 C 563.726562 241.808594 564.390625 243.117188 565.089844 244.410156 C 565.789062 245.703125 566.527344 246.972656 567.300781 248.222656 C 568.074219 249.472656 568.882812 250.699219 569.726562 251.902344 C 570.570312 253.105469 571.449219 254.285156 572.363281 255.4375 C 573.273438 256.589844 574.21875 257.714844 575.195312 258.8125 C 576.171875 259.910156 577.179688 260.980469 578.21875 262.019531 C 579.257812 263.058594 580.324219 264.066406 581.421875 265.046875 C 582.519531 266.023438 583.644531 266.96875 584.796875 267.882812 C 585.949219 268.796875 587.125 269.675781 588.328125 270.519531 C 589.527344 271.367188 590.753906 272.175781 592.003906 272.949219 C 593.253906 273.726562 594.523438 274.464844 595.8125 275.164062 C 597.105469 275.867188 598.417969 276.53125 599.746094 277.15625 C 601.078125 277.78125 602.421875 278.367188 603.785156 278.917969 C 605.152344 279.464844 606.527344 279.972656 607.921875 280.441406 C 609.316406 280.910156 610.71875 281.339844 612.136719 281.726562 C 613.554688 282.113281 614.984375 282.460938 616.421875 282.765625 C 617.859375 283.070312 619.304688 283.332031 620.757812 283.554688 C 622.210938 283.777344 623.667969 283.957031 625.132812 284.09375 C 626.59375 284.234375 628.0625 284.328125 629.53125 284.378906 C 631 284.433594 632.46875 284.445312 633.9375 284.414062 C 635.40625 284.382812 636.875 284.308594 638.339844 284.191406 C 639.804688 284.074219 641.265625 283.917969 642.722656 283.714844 C 644.175781 283.515625 645.625 283.273438 647.066406 282.988281 C 648.511719 282.703125 649.941406 282.378906 651.367188 282.011719 C 652.789062 281.644531 654.199219 281.238281 655.601562 280.789062 C 657 280.339844 658.386719 279.851562 659.757812 279.324219 C 661.128906 278.796875 662.484375 278.230469 663.824219 277.621094 C 665.160156 277.015625 666.480469 276.371094 667.785156 275.6875 C 669.085938 275.007812 670.367188 274.285156 671.625 273.53125 C 672.886719 272.773438 674.125 271.980469 675.339844 271.152344 C 676.554688 270.324219 677.742188 269.464844 678.90625 268.566406 C 680.070312 267.671875 681.210938 266.742188 682.320312 265.78125 C 683.433594 264.816406 684.515625 263.824219 685.566406 262.800781 C 686.621094 261.773438 687.644531 260.71875 688.636719 259.636719 C 689.632812 258.554688 690.59375 257.441406 691.519531 256.304688 C 692.449219 255.164062 693.34375 254 694.207031 252.808594 C 695.070312 251.617188 695.894531 250.402344 696.6875 249.164062 C 697.480469 247.925781 698.234375 246.667969 698.953125 245.382812 C 699.28125 244.902344 699.679688 244.488281 700.144531 244.140625 C 700.613281 243.796875 701.125 243.535156 701.679688 243.359375 C 702.234375 243.183594 702.800781 243.101562 703.382812 243.117188 C 703.964844 243.132812 704.53125 243.242188 705.074219 243.445312 C 705.652344 243.5625 706.191406 243.773438 706.695312 244.078125 C 707.199219 244.382812 707.636719 244.761719 708.007812 245.21875 C 708.378906 245.671875 708.664062 246.179688 708.859375 246.734375 C 709.058594 247.285156 709.15625 247.859375 709.15625 248.445312 Z M 709.15625 248.445312 " fill-opacity="1" fill-rule="nonzero"/></g><path stroke-linecap="butt" transform="matrix(0.00277776, 0.749995, -0.749995, 0.00277776, 406.497199, 0.501114)" fill="none" stroke-linejoin="miter" d="M 0.00151883 2.001493 L 1080.009004 2.001495 " stroke="#ffffff" stroke-width="4" stroke-opacity="1" stroke-miterlimit="4"/><g fill="#ffffff" fill-opacity="1"><g transform="translate(124.312497, 576.276783)"><g><path d="M 98.65625 0 L 77.28125 0 L 69.546875 -23.703125 L 30.171875 -23.703125 L 22.4375 0 L 1.546875 0 L 37.0625 -102.796875 L 63.140625 -102.796875 Z M 48.875 -81.359375 L 35.65625 -40.78125 L 63.921875 -40.78125 L 50.625 -81.359375 Z M 48.875 -81.359375 "/></g></g><g transform="translate(224.507805, 576.276783)"><g><path d="M 32 0 L 13.359375 0 L 13.359375 -102.796875 L 39.9375 -102.796875 L 65.953125 -27.21875 L 67.4375 -27.21875 L 93.3125 -102.796875 L 119.25 -102.796875 L 119.25 0 L 99.984375 0 L 99.984375 -67.921875 L 98.234375 -68.203125 L 74.46875 0 L 57.515625 0 L 33.75 -68.203125 L 32 -67.921875 Z M 32 0 "/></g></g></g><g fill="#ffffff" fill-opacity="1"><g transform="translate(357.187486, 576.276783)"><g/></g><g transform="translate(391.148421, 576.276783)"><g/></g><g transform="translate(425.109356, 576.276783)"><g/></g></g><g fill="#ffffff" fill-opacity="1"><g transform="translate(459.070293, 576.276783)"><g><path d="M 53.09375 -102.796875 C 60.445312 -102.796875 66.738281 -101.445312 71.96875 -98.75 C 77.195312 -96.0625 81.144531 -92.289062 83.8125 -87.4375 C 86.488281 -82.582031 87.828125 -76.945312 87.828125 -70.53125 C 87.828125 -64.101562 86.488281 -58.472656 83.8125 -53.640625 C 81.144531 -48.816406 77.195312 -45.054688 71.96875 -42.359375 C 66.738281 -39.671875 60.445312 -38.328125 53.09375 -38.328125 L 33.6875 -38.328125 L 33.6875 0 L 13.359375 0 L 13.359375 -102.796875 Z M 50.421875 -54.421875 C 61.710938 -54.421875 67.359375 -59.789062 67.359375 -70.53125 C 67.359375 -81.3125 61.710938 -86.703125 50.421875 -86.703125 L 33.6875 -86.703125 L 33.6875 -54.421875 Z M 50.421875 -54.421875 "/></g></g><g transform="translate(553.007788, 576.276783)"><g><path d="M 32 0 L 13.359375 0 L 13.359375 -102.796875 L 39.9375 -102.796875 L 65.953125 -27.21875 L 67.4375 -27.21875 L 93.3125 -102.796875 L 119.25 -102.796875 L 119.25 0 L 99.984375 0 L 99.984375 -67.921875 L 98.234375 -68.203125 L 74.46875 0 L 57.515625 0 L 33.75 -68.203125 L 32 -67.921875 Z M 32 0 "/></g></g></g></svg>