<svg xmlns="http://www.w3.org/2000/svg" xmlns:xlink="http://www.w3.org/1999/xlink" width="1080" zoomAndPan="magnify" viewBox="0 0 810 809.999993" height="1080" preserveAspectRatio="xMidYMid meet" version="1.0"><defs><clipPath id="400cd3e451"><path d="M 60.378906 41.246094 L 789 41.246094 L 789 752.851562 L 60.378906 752.851562 Z M 60.378906 41.246094 " clip-rule="nonzero"/></clipPath><clipPath id="303a783c3e"><path d="M 424.878906 41.246094 C 223.570312 41.246094 60.378906 200.542969 60.378906 397.050781 C 60.378906 593.554688 223.570312 752.851562 424.878906 752.851562 C 626.183594 752.851562 789.378906 593.554688 789.378906 397.050781 C 789.378906 200.542969 626.183594 41.246094 424.878906 41.246094 Z M 424.878906 41.246094 " clip-rule="nonzero"/></clipPath></defs><g clip-path="url(#400cd3e451)"><g clip-path="url(#303a783c3e)"><path fill="#ffffff" d="M 60.378906 41.246094 L 788.664062 41.246094 L 788.664062 752.851562 L 60.378906 752.851562 Z M 60.378906 41.246094 " fill-opacity="1" fill-rule="nonzero"/></g></g><path fill="#a6a6a6" d="M 404.929688 -0.015625 C 180.746094 -0.015625 -0.046875 182.585938 -0.046875 404.960938 C -0.046875 629.144531 182.554688 809.9375 404.929688 809.9375 C 629.113281 809.9375 809.90625 627.335938 809.90625 404.960938 C 809.90625 182.585938 629.113281 -0.015625 404.929688 -0.015625 Z M 656.230469 600.21875 C 645.382812 636.375 596.570312 688.804688 551.371094 688.804688 L 547.753906 686.996094 C 480.863281 683.382812 388.65625 620.105469 303.683594 517.050781 L 272.949219 479.085938 C 187.976562 376.035156 142.78125 274.789062 153.628906 209.707031 C 160.859375 162.699219 229.5625 124.734375 269.335938 124.734375 C 289.222656 124.734375 296.453125 133.773438 298.261719 141.003906 C 319.957031 180.777344 348.882812 249.480469 348.882812 274.789062 L 348.882812 278.40625 C 343.460938 291.0625 332.613281 298.292969 323.574219 303.71875 C 310.917969 310.949219 303.683594 316.371094 301.878906 329.027344 C 301.878906 332.644531 305.492188 352.53125 361.539062 421.234375 L 385.042969 450.160156 C 441.085938 517.050781 459.167969 524.285156 462.78125 524.285156 C 477.246094 526.09375 482.671875 520.667969 493.519531 509.820312 C 500.75 500.78125 509.789062 491.742188 522.445312 489.933594 L 526.058594 489.933594 C 551.371094 495.359375 612.839844 535.132812 649 565.867188 C 654.421875 567.675781 663.460938 576.714844 656.230469 600.21875 Z M 656.230469 600.21875 " fill-opacity="1" fill-rule="nonzero"/></svg>