<svg xmlns="http://www.w3.org/2000/svg" xmlns:xlink="http://www.w3.org/1999/xlink" width="1080" zoomAndPan="magnify" viewBox="0 0 810 809.999993" height="1080" preserveAspectRatio="xMidYMid meet" version="1.0"><defs><clipPath id="b4a1371ed6"><path d="M 393.855469 119.878906 L 431.691406 119.878906 L 431.691406 690.121094 L 393.855469 690.121094 Z M 393.855469 119.878906 " clip-rule="nonzero"/></clipPath><clipPath id="cb8758c049"><path d="M 69.855469 228.832031 L 345.574219 228.832031 L 345.574219 689.878906 L 69.855469 689.878906 Z M 69.855469 228.832031 " clip-rule="nonzero"/></clipPath><clipPath id="cd325fc678"><path d="M 501.835938 227.957031 L 717.851562 227.957031 L 717.851562 689.144531 L 501.835938 689.144531 Z M 501.835938 227.957031 " clip-rule="nonzero"/></clipPath></defs><path fill="#648fff" d="M 810 405 C 810 411.628906 809.835938 418.253906 809.511719 424.871094 C 809.1875 431.492188 808.699219 438.101562 808.050781 444.695312 C 807.398438 451.292969 806.589844 457.871094 805.617188 464.425781 C 804.644531 470.980469 803.511719 477.511719 802.21875 484.011719 C 800.925781 490.511719 799.472656 496.976562 797.863281 503.40625 C 796.25 509.835938 794.484375 516.222656 792.5625 522.566406 C 790.636719 528.90625 788.558594 535.199219 786.324219 541.441406 C 784.09375 547.679688 781.707031 553.863281 779.171875 559.988281 C 776.632812 566.109375 773.949219 572.167969 771.117188 578.160156 C 768.28125 584.152344 765.300781 590.070312 762.179688 595.914062 C 759.054688 601.761719 755.789062 607.527344 752.378906 613.210938 C 748.972656 618.898438 745.425781 624.496094 741.746094 630.003906 C 738.0625 635.515625 734.246094 640.933594 730.296875 646.257812 C 726.351562 651.582031 722.273438 656.804688 718.070312 661.929688 C 713.863281 667.054688 709.535156 672.070312 705.085938 676.980469 C 700.632812 681.890625 696.066406 686.691406 691.378906 691.378906 C 686.691406 696.066406 681.890625 700.632812 676.980469 705.085938 C 672.070312 709.535156 667.054688 713.863281 661.929688 718.070312 C 656.804688 722.273438 651.582031 726.351562 646.257812 730.300781 C 640.933594 734.246094 635.515625 738.0625 630.003906 741.746094 C 624.496094 745.425781 618.898438 748.972656 613.210938 752.378906 C 607.527344 755.789062 601.761719 759.054688 595.914062 762.179688 C 590.070312 765.300781 584.152344 768.28125 578.160156 771.117188 C 572.167969 773.949219 566.109375 776.632812 559.988281 779.171875 C 553.863281 781.707031 547.679688 784.09375 541.441406 786.324219 C 535.199219 788.558594 528.90625 790.636719 522.566406 792.5625 C 516.222656 794.484375 509.835938 796.25 503.40625 797.863281 C 496.976562 799.472656 490.511719 800.925781 484.011719 802.21875 C 477.511719 803.511719 470.980469 804.644531 464.425781 805.617188 C 457.871094 806.589844 451.292969 807.398438 444.695312 808.050781 C 438.101562 808.699219 431.492188 809.1875 424.871094 809.511719 C 418.253906 809.835938 411.628906 810 405 810 C 398.371094 810 391.746094 809.835938 385.128906 809.511719 C 378.507812 809.1875 371.898438 808.699219 365.304688 808.050781 C 358.707031 807.398438 352.128906 806.589844 345.574219 805.617188 C 339.019531 804.644531 332.488281 803.511719 325.988281 802.21875 C 319.488281 800.925781 313.023438 799.472656 306.59375 797.863281 C 300.164062 796.25 293.777344 794.484375 287.433594 792.5625 C 281.09375 790.636719 274.800781 788.558594 268.558594 786.324219 C 262.320312 784.09375 256.136719 781.707031 250.011719 779.171875 C 243.890625 776.632812 237.832031 773.949219 231.839844 771.117188 C 225.847656 768.28125 219.929688 765.300781 214.085938 762.179688 C 208.238281 759.054688 202.472656 755.789062 196.789062 752.378906 C 191.101562 748.972656 185.503906 745.425781 179.992188 741.746094 C 174.484375 738.0625 169.066406 734.246094 163.742188 730.300781 C 158.417969 726.351562 153.195312 722.273438 148.070312 718.070312 C 142.945312 713.863281 137.929688 709.535156 133.019531 705.085938 C 128.109375 700.632812 123.308594 696.066406 118.621094 691.378906 C 113.933594 686.691406 109.367188 681.890625 104.914062 676.980469 C 100.464844 672.070312 96.136719 667.054688 91.929688 661.929688 C 87.726562 656.804688 83.648438 651.582031 79.699219 646.257812 C 75.753906 640.933594 71.9375 635.515625 68.253906 630.003906 C 64.574219 624.496094 61.027344 618.898438 57.621094 613.210938 C 54.210938 607.527344 50.945312 601.761719 47.820312 595.914062 C 44.699219 590.070312 41.71875 584.152344 38.882812 578.160156 C 36.050781 572.167969 33.363281 566.109375 30.828125 559.988281 C 28.292969 553.863281 25.90625 547.679688 23.675781 541.441406 C 21.441406 535.199219 19.363281 528.90625 17.4375 522.566406 C 15.515625 516.222656 13.746094 509.835938 12.136719 503.40625 C 10.527344 496.976562 9.074219 490.511719 7.78125 484.011719 C 6.488281 477.511719 5.355469 470.980469 4.382812 464.425781 C 3.410156 457.871094 2.601562 451.292969 1.949219 444.695312 C 1.300781 438.101562 0.8125 431.492188 0.488281 424.871094 C 0.164062 418.253906 0 411.628906 0 405 C 0 398.371094 0.164062 391.746094 0.488281 385.128906 C 0.8125 378.507812 1.300781 371.898438 1.949219 365.304688 C 2.601562 358.707031 3.410156 352.128906 4.382812 345.574219 C 5.355469 339.019531 6.488281 332.488281 7.78125 325.988281 C 9.074219 319.488281 10.527344 313.023438 12.136719 306.59375 C 13.746094 300.164062 15.515625 293.777344 17.4375 287.433594 C 19.363281 281.09375 21.441406 274.800781 23.675781 268.558594 C 25.90625 262.320312 28.292969 256.136719 30.828125 250.011719 C 33.363281 243.890625 36.050781 237.832031 38.882812 231.839844 C 41.71875 225.847656 44.699219 219.929688 47.820312 214.085938 C 50.945312 208.238281 54.210938 202.472656 57.621094 196.789062 C 61.027344 191.101562 64.574219 185.503906 68.253906 179.992188 C 71.9375 174.484375 75.753906 169.066406 79.699219 163.742188 C 83.648438 158.417969 87.726562 153.195312 91.929688 148.070312 C 96.136719 142.945312 100.464844 137.929688 104.914062 133.019531 C 109.367188 128.109375 113.933594 123.308594 118.621094 118.621094 C 123.308594 113.933594 128.109375 109.367188 133.019531 104.914062 C 137.929688 100.464844 142.945312 96.136719 148.070312 91.929688 C 153.195312 87.726562 158.417969 83.648438 163.742188 79.699219 C 169.066406 75.753906 174.484375 71.9375 179.992188 68.253906 C 185.503906 64.574219 191.101562 61.027344 196.789062 57.621094 C 202.472656 54.210938 208.238281 50.945312 214.085938 47.820312 C 219.929688 44.699219 225.847656 41.71875 231.839844 38.882812 C 237.832031 36.050781 243.890625 33.367188 250.011719 30.828125 C 256.136719 28.292969 262.320312 25.90625 268.558594 23.675781 C 274.800781 21.441406 281.09375 19.363281 287.433594 17.4375 C 293.777344 15.515625 300.164062 13.746094 306.59375 12.136719 C 313.023438 10.527344 319.488281 9.074219 325.988281 7.78125 C 332.488281 6.488281 339.019531 5.355469 345.574219 4.382812 C 352.128906 3.410156 358.707031 2.601562 365.304688 1.949219 C 371.898438 1.300781 378.507812 0.8125 385.128906 0.488281 C 391.746094 0.164062 398.371094 0 405 0 C 411.628906 0 418.253906 0.164062 424.871094 0.488281 C 431.492188 0.8125 438.101562 1.300781 444.695312 1.949219 C 451.292969 2.601562 457.871094 3.410156 464.425781 4.382812 C 470.980469 5.355469 477.511719 6.488281 484.011719 7.78125 C 490.511719 9.074219 496.976562 10.527344 503.40625 12.136719 C 509.835938 13.746094 516.222656 15.515625 522.566406 17.4375 C 528.90625 19.363281 535.199219 21.441406 541.441406 23.675781 C 547.679688 25.90625 553.863281 28.292969 559.988281 30.828125 C 566.109375 33.367188 572.167969 36.050781 578.160156 38.882812 C 584.152344 41.71875 590.070312 44.699219 595.914062 47.820312 C 601.761719 50.945312 607.527344 54.210938 613.210938 57.621094 C 618.898438 61.027344 624.496094 64.574219 630.003906 68.253906 C 635.515625 71.9375 640.933594 75.753906 646.257812 79.699219 C 651.582031 83.648438 656.804688 87.726562 661.929688 91.929688 C 667.054688 96.136719 672.070312 100.464844 676.980469 104.914062 C 681.890625 109.367188 686.691406 113.933594 691.378906 118.621094 C 696.066406 123.308594 700.632812 128.109375 705.085938 133.019531 C 709.535156 137.929688 713.863281 142.945312 718.070312 148.070312 C 722.273438 153.195312 726.351562 158.417969 730.300781 163.742188 C 734.246094 169.066406 738.0625 174.484375 741.746094 179.992188 C 745.425781 185.503906 748.972656 191.101562 752.378906 196.789062 C 755.789062 202.472656 759.054688 208.238281 762.179688 214.085938 C 765.300781 219.929688 768.28125 225.847656 771.117188 231.839844 C 773.949219 237.832031 776.632812 243.890625 779.171875 250.011719 C 781.707031 256.136719 784.09375 262.320312 786.324219 268.558594 C 788.558594 274.800781 790.636719 281.09375 792.5625 287.433594 C 794.484375 293.777344 796.253906 300.164062 797.863281 306.59375 C 799.472656 313.023438 800.925781 319.488281 802.21875 325.988281 C 803.511719 332.488281 804.644531 339.019531 805.617188 345.574219 C 806.589844 352.128906 807.398438 358.707031 808.050781 365.304688 C 808.699219 371.898438 809.1875 378.507812 809.511719 385.128906 C 809.835938 391.746094 810 398.371094 810 405 Z M 810 405 " fill-opacity="1" fill-rule="nonzero"/><g clip-path="url(#b4a1371ed6)"><path fill="#ffffff" d="M 393.855469 119.878906 L 431.691406 119.878906 L 431.691406 690.109375 L 393.855469 690.109375 Z M 393.855469 119.878906 " fill-opacity="1" fill-rule="nonzero"/></g><g clip-path="url(#cb8758c049)"><path fill="#ffffff" d="M 343.921875 400.320312 L 291.890625 257.367188 C 285.660156 240.25 269.386719 228.855469 251.167969 228.855469 L 164.179688 228.855469 C 145.964844 228.855469 129.691406 240.25 123.460938 257.367188 L 71.429688 400.320312 C 67.082031 412.265625 72.039062 425.136719 82.441406 428.921875 C 92.84375 432.707031 104.910156 426.03125 109.257812 414.089844 L 150.125 302.03125 C 151.136719 299.261719 154.199219 297.667969 157.21875 298.707031 C 160.152344 299.714844 161.523438 303.128906 160.464844 306.050781 L 85.019531 514.300781 L 153.371094 514.300781 L 153.371094 666.226562 C 153.371094 677.835938 161.65625 688.230469 173.167969 689.753906 C 187.101562 691.597656 199.117188 680.675781 199.117188 667.085938 L 199.117188 514.300781 L 216.234375 514.300781 L 216.234375 666.226562 C 216.234375 677.835938 224.519531 688.230469 236.03125 689.753906 C 249.964844 691.597656 261.980469 680.675781 261.980469 667.085938 L 261.980469 514.300781 L 330.332031 514.300781 L 254.886719 306.050781 C 253.828125 303.128906 255.195312 299.714844 258.132812 298.707031 C 261.152344 297.667969 264.214844 299.261719 265.222656 302.03125 L 306.09375 414.089844 C 310.441406 426.03125 322.507812 432.707031 332.910156 428.921875 C 343.3125 425.136719 348.269531 412.265625 343.921875 400.320312 " fill-opacity="1" fill-rule="nonzero"/></g><path fill="#ffffff" d="M 255.839844 169.390625 C 255.839844 196.167969 234.128906 217.878906 207.347656 217.878906 C 180.570312 217.878906 158.859375 196.167969 158.859375 169.390625 C 158.859375 142.609375 180.570312 120.902344 207.347656 120.902344 C 234.128906 120.902344 255.839844 142.609375 255.839844 169.390625 " fill-opacity="1" fill-rule="nonzero"/><path fill="#ffffff" d="M 660.214844 168.523438 C 660.214844 195.304688 638.503906 217.011719 611.726562 217.011719 C 584.945312 217.011719 563.238281 195.304688 563.238281 168.523438 C 563.238281 141.742188 584.945312 120.035156 611.726562 120.035156 C 638.503906 120.035156 660.214844 141.742188 660.214844 168.523438 " fill-opacity="1" fill-rule="nonzero"/><g clip-path="url(#cd325fc678)"><path fill="#ffffff" d="M 669.554688 227.988281 L 550.242188 227.988281 C 523.566406 227.988281 501.941406 249.609375 501.941406 276.285156 L 501.941406 422.824219 C 501.941406 433.320312 509.558594 442.742188 520.007812 443.796875 C 531.992188 445.007812 542.199219 435.523438 542.199219 423.773438 L 542.199219 288.371094 C 542.199219 285.339844 544.65625 282.882812 547.683594 282.882812 C 550.71875 282.882812 553.175781 285.339844 553.175781 288.371094 L 553.175781 664.40625 C 553.175781 676.484375 561.792969 687.292969 573.761719 688.875 C 588.253906 690.796875 600.75 679.4375 600.75 665.304688 L 600.75 453.050781 C 600.75 447.996094 604.84375 443.902344 609.894531 443.902344 C 614.953125 443.902344 619.046875 447.996094 619.046875 453.050781 L 619.046875 665.304688 C 619.046875 679.4375 631.542969 690.796875 646.03125 688.875 C 658.003906 687.292969 666.621094 676.484375 666.621094 664.40625 L 666.621094 288.371094 C 666.621094 285.339844 669.078125 282.882812 672.109375 282.882812 C 675.140625 282.882812 677.597656 285.339844 677.597656 288.371094 L 677.597656 423.773438 C 677.597656 435.523438 687.804688 445.007812 699.789062 443.796875 C 710.234375 442.742188 717.855469 433.320312 717.855469 422.824219 L 717.855469 276.285156 C 717.855469 249.609375 696.230469 227.988281 669.554688 227.988281 " fill-opacity="1" fill-rule="nonzero"/></g></svg>